<svg xmlns="http://www.w3.org/2000/svg" xmlns:xlink="http://www.w3.org/1999/xlink" width="500" zoomAndPan="magnify" viewBox="0 0 375 374.999991" height="500" preserveAspectRatio="xMidYMid meet" version="1.0"><defs><clipPath id="id1"><path d="M 42 38 L 329 38 L 329 324 L 42 324 Z M 42 38 " clip-rule="nonzero"/></clipPath><clipPath id="id2"><path d="M 19.324219 222.746094 L 232.039062 19.800781 L 348.007812 141.351562 L 135.292969 344.300781 Z M 19.324219 222.746094 " clip-rule="nonzero"/></clipPath><clipPath id="id3"><path d="M 19.324219 222.746094 L 232.039062 19.800781 L 348.007812 141.351562 L 135.292969 344.300781 Z M 19.324219 222.746094 " clip-rule="nonzero"/></clipPath></defs><path fill="#222222" d="M 375.003906 187.5 C 375.003906 162.191406 370.046875 137.632812 360.265625 114.511719 C 350.820312 92.183594 337.304688 72.132812 320.085938 54.914062 C 302.867188 37.695312 282.816406 24.179688 260.488281 14.734375 C 237.367188 4.953125 212.808594 -0.00390625 187.5 -0.00390625 C 162.191406 -0.00390625 137.632812 4.953125 114.511719 14.734375 C 92.183594 24.179688 72.132812 37.695312 54.914062 54.914062 C 37.695312 72.132812 24.179688 92.183594 14.734375 114.511719 C 4.953125 137.632812 -0.00390625 162.191406 -0.00390625 187.5 C -0.00390625 212.808594 4.953125 237.367188 14.734375 260.488281 C 24.179688 282.816406 37.695312 302.867188 54.914062 320.085938 C 72.132812 337.304688 92.183594 350.820312 114.511719 360.265625 C 137.632812 370.046875 162.191406 375.003906 187.5 375.003906 C 211.898438 375.003906 235.597656 370.394531 257.984375 361.300781 C 259.625 361.394531 261.25 361.640625 262.835938 362.039062 C 264.632812 362.492188 267.046875 363.003906 269.816406 362.917969 C 270.652344 362.894531 271.480469 362.816406 272.285156 362.683594 C 278.363281 361.695312 283.652344 357.371094 285.761719 351.667969 C 286.367188 350.03125 286.703125 348.316406 286.78125 346.59375 C 298.789062 339.089844 309.933594 330.238281 320.085938 320.085938 C 324.597656 315.574219 328.84375 310.863281 332.839844 305.96875 C 333.113281 305.933594 333.386719 305.90625 333.660156 305.878906 C 335.503906 305.714844 337.953125 305.394531 340.542969 304.402344 C 341.320312 304.101562 342.078125 303.75 342.792969 303.363281 C 348.199219 300.417969 351.761719 294.589844 351.867188 288.511719 C 351.914062 285.839844 351.300781 283.214844 350.15625 280.84375 C 353.917969 274.296875 357.296875 267.503906 360.265625 260.488281 C 370.046875 237.367188 375.003906 212.808594 375.003906 187.5 Z M 226.425781 337.359375 C 225.445312 338.855469 224.71875 340.496094 224.257812 342.199219 C 212.355469 345.007812 200.039062 346.457031 187.5 346.457031 C 145.042969 346.457031 105.125 329.921875 75.101562 299.898438 C 45.078125 269.875 28.542969 229.957031 28.542969 187.5 C 28.542969 145.042969 45.078125 105.125 75.101562 75.101562 C 105.125 45.078125 145.042969 28.542969 187.5 28.542969 C 229.957031 28.542969 269.875 45.078125 299.898438 75.101562 C 329.921875 105.125 346.457031 145.042969 346.457031 187.5 C 346.457031 205.777344 343.375 223.574219 337.492188 240.324219 C 336.246094 240.335938 335.023438 240.554688 333.875 241 C 333.769531 241.039062 333.667969 241.078125 333.566406 241.121094 C 332.6875 241.496094 331.863281 241.992188 331.09375 242.609375 C 329.859375 237.148438 326.882812 232 323.015625 228.691406 C 318.378906 224.722656 313.207031 223.410156 308.835938 225.09375 C 307.722656 225.523438 306.679688 226.140625 305.730469 226.933594 C 302.839844 229.34375 301.042969 233.074219 300.558594 237.589844 C 297.1875 234.507812 293.359375 232.894531 289.582031 233.007812 C 288.308594 233.042969 287.082031 233.285156 285.9375 233.726562 C 281.601562 235.394531 278.640625 239.789062 277.804688 245.777344 C 277.132812 250.601562 278.1875 256.144531 280.636719 260.910156 C 279.664062 260.90625 278.71875 261.03125 277.808594 261.28125 C 277.496094 261.371094 277.183594 261.472656 276.882812 261.589844 C 273.554688 262.871094 270.976562 265.875 269.988281 269.628906 C 269.300781 272.238281 269.378906 275.078125 270.207031 278.269531 C 268.886719 277.785156 267.515625 277.546875 266.121094 277.589844 C 264.933594 277.628906 263.742188 277.863281 262.585938 278.296875 C 259.058594 279.617188 256.132812 282.542969 254.175781 286.644531 C 252.015625 282.625 248.9375 279.832031 245.335938 278.6875 C 244.121094 278.304688 242.882812 278.125 241.65625 278.164062 C 237.015625 278.304688 232.765625 281.472656 229.996094 286.847656 C 227.769531 291.179688 226.929688 296.757812 227.667969 302.066406 C 226.75 301.742188 225.816406 301.546875 224.875 301.480469 C 224.550781 301.460938 224.222656 301.453125 223.898438 301.464844 C 220.332031 301.574219 216.90625 303.558594 214.734375 306.769531 C 213.0625 309.242188 212.171875 312.273438 212.011719 316.046875 C 211.875 319.222656 212.230469 322.390625 213.0625 325.460938 C 214.320312 330.089844 216.613281 333.335938 219.882812 335.101562 C 221.871094 336.175781 224.171875 336.707031 226.53125 336.632812 C 226.667969 336.628906 226.804688 336.625 226.941406 336.617188 C 226.761719 336.863281 226.589844 337.109375 226.425781 337.359375 Z M 323.996094 252.984375 C 322.527344 254.542969 320.359375 255.371094 318.183594 255.410156 C 314.804688 255.472656 310.878906 253.722656 308.875 250.914062 C 305.398438 246.042969 304.183594 235.292969 309.207031 231.097656 C 312.398438 228.4375 316.679688 230.414062 319.488281 232.8125 C 322.859375 235.699219 325.15625 240.285156 325.957031 244.5625 C 326.050781 245.046875 326.113281 245.542969 326.148438 246.039062 C 326.316406 248.574219 325.707031 251.171875 323.996094 252.984375 Z M 299.136719 262.582031 C 297.480469 263.996094 295.308594 264.8125 293.175781 264.621094 C 290.695312 264.398438 288.515625 262.855469 286.960938 260.84375 C 286.65625 260.449219 286.375 260.039062 286.121094 259.613281 C 283.890625 255.878906 282.570312 250.921875 283.179688 246.527344 C 283.6875 242.871094 285.585938 238.550781 289.738281 238.429688 C 296.28125 238.238281 302.5 247.09375 303.125 253.042969 C 303.484375 256.476562 301.707031 260.390625 299.136719 262.582031 Z M 273.621094 288.398438 C 275.847656 292.234375 276.5 297.324219 275.84375 301.625 C 275.769531 302.113281 275.667969 302.601562 275.535156 303.078125 C 274.855469 305.53125 273.421875 307.78125 271.207031 308.925781 C 269.304688 309.910156 266.984375 309.972656 264.917969 309.292969 C 261.710938 308.234375 258.582031 305.285156 257.621094 301.96875 C 255.949219 296.226562 258.359375 285.675781 264.488281 283.378906 C 268.382812 281.921875 271.769531 285.203125 273.621094 288.398438 Z M 233.65625 304.09375 C 233.5 303.621094 233.371094 303.140625 233.273438 302.65625 C 232.398438 298.394531 232.792969 293.277344 234.824219 289.332031 C 236.511719 286.050781 239.730469 282.601562 243.691406 283.859375 C 249.925781 285.84375 252.867188 296.257812 251.492188 302.078125 C 250.695312 305.4375 247.722656 308.542969 244.570312 309.761719 C 242.542969 310.546875 240.222656 310.601562 238.269531 309.710938 C 236.003906 308.683594 234.457031 306.507812 233.65625 304.09375 Z M 235.625 323.136719 C 235.625 323.144531 235.625 323.148438 235.621094 323.15625 C 235.304688 328.953125 227.574219 333.089844 222.460938 330.324219 C 220.1875 329.097656 218.976562 326.535156 218.300781 324.039062 C 217.617188 321.515625 217.324219 318.886719 217.433594 316.277344 C 217.53125 314.011719 217.960938 311.6875 219.230469 309.8125 C 220.382812 308.101562 222.382812 306.753906 224.507812 306.898438 C 225.777344 306.980469 226.964844 307.585938 227.953125 308.382812 C 232.078125 311.707031 235.914062 317.691406 235.625 323.136719 Z M 280.671875 349.785156 C 279.230469 353.675781 275.503906 356.660156 271.414062 357.328125 C 268.933594 357.730469 266.539062 357.378906 264.164062 356.777344 C 261.324219 356.0625 258.417969 355.75 255.523438 355.835938 C 252.625 355.925781 249.742188 356.414062 246.953125 357.304688 C 244.621094 358.046875 242.25 358.546875 239.75 358.292969 C 235.628906 357.875 231.726562 355.125 230.050781 351.328125 C 228.503906 347.824219 228.859375 343.542969 230.960938 340.339844 C 234.261719 335.316406 240.363281 333.175781 243.074219 327.5625 C 245.550781 322.425781 247.304688 315.382812 254.28125 315.167969 C 261.257812 314.957031 263.4375 321.878906 266.226562 326.855469 C 269.273438 332.296875 275.492188 334.058594 279.09375 338.875 C 281.386719 341.941406 282.003906 346.191406 280.671875 349.785156 Z M 290.664062 323.472656 C 289.976562 325.964844 288.757812 328.523438 286.480469 329.746094 C 281.359375 332.492188 273.640625 328.332031 273.34375 322.53125 C 273.34375 322.527344 273.339844 322.519531 273.339844 322.515625 C 273.070312 317.070312 276.925781 311.097656 281.058594 307.785156 C 282.050781 306.992188 283.242188 306.390625 284.507812 306.3125 C 286.632812 306.175781 288.628906 307.53125 289.78125 309.242188 C 291.042969 311.125 291.464844 313.449219 291.554688 315.714844 C 291.65625 318.324219 291.355469 320.953125 290.664062 323.472656 Z M 285.070312 289.300781 C 282.519531 288.894531 280.527344 286.875 279.0625 284.746094 C 277.585938 282.589844 276.4375 280.207031 275.679688 277.707031 C 275.023438 275.535156 274.660156 273.199219 275.234375 271.011719 C 275.761719 269.015625 277.203125 267.082031 279.253906 266.511719 C 280.480469 266.175781 281.800781 266.351562 282.996094 266.777344 C 287.988281 268.550781 293.585938 272.929688 295.113281 278.164062 C 295.117188 278.167969 295.117188 278.175781 295.121094 278.183594 C 296.738281 283.757812 290.808594 290.21875 285.070312 289.300781 Z M 340.195312 298.597656 C 337.992188 299.796875 335.613281 300.257812 333.175781 300.476562 C 330.257812 300.738281 327.414062 301.402344 324.707031 302.445312 C 322.003906 303.484375 319.445312 304.902344 317.105469 306.664062 C 315.152344 308.132812 313.078125 309.390625 310.636719 309.976562 C 306.609375 310.949219 302.015625 309.640625 299.175781 306.613281 C 296.558594 303.816406 295.476562 299.660156 296.40625 295.941406 C 297.859375 290.109375 302.910156 286.070312 303.609375 279.878906 C 304.25 274.210938 303.574219 266.984375 310.089844 264.476562 C 316.601562 261.96875 320.949219 267.78125 325.226562 271.554688 C 329.898438 275.679688 336.351562 275.289062 341.34375 278.640625 C 344.523438 280.777344 346.507812 284.585938 346.441406 288.414062 C 346.371094 292.566406 343.835938 296.613281 340.195312 298.597656 Z M 345.296875 267.582031 C 341.371094 271.867188 332.710938 270.496094 330.511719 265.121094 C 330.507812 265.113281 330.507812 265.109375 330.503906 265.101562 C 328.449219 260.054688 330.109375 253.144531 332.917969 248.652344 C 333.589844 247.574219 334.515625 246.613281 335.683594 246.117188 C 337.644531 245.289062 339.976562 245.90625 341.628906 247.140625 C 343.441406 248.5 344.609375 250.554688 345.441406 252.664062 C 346.402344 255.09375 346.988281 257.671875 347.167969 260.28125 C 347.347656 262.859375 347.042969 265.675781 345.296875 267.582031 Z M 349.285156 248.070312 C 348.085938 245.851562 346.632812 244.109375 344.878906 242.796875 C 344.773438 242.714844 344.660156 242.644531 344.550781 242.566406 C 350.660156 225.101562 353.855469 206.546875 353.855469 187.5 C 353.855469 143.066406 336.550781 101.289062 305.128906 69.871094 C 273.710938 38.449219 231.933594 21.144531 187.5 21.144531 C 143.066406 21.144531 101.289062 38.449219 69.871094 69.871094 C 38.449219 101.289062 21.144531 143.066406 21.144531 187.5 C 21.144531 231.933594 38.449219 273.710938 69.871094 305.128906 C 101.289062 336.550781 143.066406 353.855469 187.5 353.855469 C 199.917969 353.855469 212.128906 352.492188 223.960938 349.855469 C 224.195312 351.109375 224.5625 352.339844 225.085938 353.519531 C 225.4375 354.320312 225.863281 355.085938 226.339844 355.816406 C 213.691406 358.730469 200.710938 360.207031 187.5 360.207031 C 164.179688 360.207031 141.5625 355.640625 120.277344 346.636719 C 99.710938 337.941406 81.242188 325.484375 65.378906 309.621094 C 49.515625 293.757812 37.058594 275.289062 28.363281 254.722656 C 19.359375 233.4375 14.792969 210.820312 14.792969 187.5 C 14.792969 164.179688 19.359375 141.5625 28.363281 120.277344 C 37.058594 99.710938 49.515625 81.242188 65.378906 65.378906 C 81.242188 49.515625 99.710938 37.058594 120.277344 28.363281 C 141.5625 19.359375 164.179688 14.792969 187.5 14.792969 C 210.820312 14.792969 233.4375 19.359375 254.722656 28.363281 C 275.289062 37.058594 293.757812 49.515625 309.621094 65.378906 C 325.484375 81.242188 337.941406 99.710938 346.636719 120.277344 C 355.640625 141.5625 360.207031 164.179688 360.207031 187.5 C 360.207031 208.40625 356.53125 228.746094 349.285156 248.070312 Z M 349.285156 248.070312 " fill-opacity="1" fill-rule="nonzero"/><g clip-path="url(#id1)"><g clip-path="url(#id2)"><g clip-path="url(#id3)"><path fill="#5bb780" d="M 273.917969 92.59375 C 295.175781 91.664062 320.769531 103.394531 327.226562 126.277344 C 338.851562 167.527344 284.128906 209.488281 250.28125 174.3125 L 171.613281 249.371094 C 174.777344 261.730469 181.453125 269.40625 181.699219 279.90625 C 183.128906 341.621094 82.699219 336.757812 93.089844 273.5625 C 80.742188 269.1875 72.769531 273.292969 64.015625 267.492188 C 10.648438 232.136719 68.363281 155.300781 113.398438 195.015625 L 193.183594 118.894531 C 192.003906 107.328125 184.980469 104.15625 182.945312 94.847656 C 175.109375 59.234375 218.539062 25.710938 250.222656 43.347656 C 267.539062 52.992188 275.875 75.398438 273.917969 92.59375 " fill-opacity="1" fill-rule="evenodd"/></g></g></g></svg>