<svg xmlns="http://www.w3.org/2000/svg" width="50" height="50" enable-background="new 0 0 50 50" viewBox="0 0 50 50"><path fill="#E94F3C" d="M33.6,15.4c-2.5-0.2-4.9,0.5-6.8,1.8c-1.1,0.7-2.5,0.7-3.5,0c-2-1.3-4.3-2-6.8-1.9
			c-5.6,0.4-9.9,4.9-9.9,10.4C6.6,41.7,12.3,45,17.1,45c3.9,0,6.3-1.1,7.6-2c0.2-0.1,0.4-0.1,0.6,0c1.3,0.9,3.6,2,7.6,2
			c4.8,0,10.6-3.3,10.6-19.2C43.5,20.3,39.2,15.8,33.6,15.4z"/><path d="M43.5,25.8C43.5,41.7,37.7,45,32.9,45c-2.6,0-4.5-0.5-5.8-1c0.7,0.1,1.4,0.1,2.1,0.1c4.8,0,10.6-3.3,10.6-19.2
			c0-4.2-2.5-7.8-6.2-9.5C39.2,15.8,43.5,20.3,43.5,25.8z" opacity=".1"/><path fill="#FFF" d="M12,26c-0.8,0-1.4-0.6-1.4-1.4c0-3.1,2.3-5.7,5.3-5.9c0.1,0,0.2,0,0.4,0c0.8,0,1.4,0.6,1.4,1.4
			c0,0.8-0.6,1.4-1.4,1.4c-0.1,0-0.1,0-0.2,0c-1.5,0.1-2.7,1.5-2.7,3.1C13.4,25.4,12.8,26,12,26C12,26,12,26,12,26z" opacity=".3"/><path d="M43.5,25.8C43.5,41.7,37.7,45,32.9,45c-3.9,0-6.3-1.1-7.6-2c-0.2-0.1-0.4-0.1-0.6,0c-1.3,0.9-3.7,2-7.6,2
			c-3.8,0-8.2-2.1-9.9-10.9c3,3.3,7.4,5.4,12.3,5.4c9.2,0,16.7-7.5,16.7-16.7c0-2.6-0.6-5.1-1.7-7.3C39.6,16.2,43.5,20.6,43.5,25.8z
			" opacity=".1"/><ellipse cx="25.1" cy="20.6" opacity=".1" rx="3.4" ry="2.5"/><path fill="#7F5D39" d="M25.5,21c-0.7,0-1.3-0.5-1.4-1.2C23.6,16.2,24.9,8.9,33,7.1c0.7-0.2,1.5,0.3,1.7,1c0.2,0.7-0.3,1.5-1,1.7
				c-7.8,1.8-6.8,9.4-6.8,9.7c0.1,0.8-0.4,1.5-1.2,1.6C25.6,21,25.5,21,25.5,21z"/><path fill="#6BB678" d="M26,15c0,0.5,0,0.8,0,0.8c-8.4,0-9.4-6.8-9.5-9.8c0-0.8,0-1.3,0-1.3C25.3,4.8,26,12.5,26,15z"/><path d="M26,15c0,0.5,0,0.8,0,0.8c-8.4,0-9.4-6.9-9.5-9.9c0-0.5,0-1,0-1h0.1c0.4,3,2.1,8.3,9.3,8.3C25.9,13.9,25.9,14.6,26,15z" opacity=".1"/></svg>