<svg xmlns="http://www.w3.org/2000/svg" width="50" height="50" enable-background="new 0 0 50 50" viewBox="0 0 50 50"><path fill="#F1EFC4" d="M44,43c-2.2,1.8-13.1,4.8-24-4c-5.5-4.4-9-8.2-11.1-11.8C6.8,23.6,6,20.3,6,17c0-6.6,1.4-12,6-12
		c4.9,0,5.2,10.9,10.5,18.9C23.2,25,24,26,25,27c7.9,7.9,15.9,8.6,19,10S45.6,41.7,44,43z"/><path fill="#E9D16E" d="M34.4,34.1c-3.2-1.4-6.8-3.5-10.4-7.1c-0.5-0.5-1.1-1.1-1.5-1.7c-0.4-0.6-0.9-1.2-1.2-1.8l0,0
		C22,22.7,23.4,22,26,22c2.9,0,4.8,1.5,6.1,3.4c1.2,1.8,1.8,4.1,2.1,6.2C34.3,32.5,34.4,33.3,34.4,34.1z"/><path d="M34.4,34.1c-3.2-1.4-6.8-3.5-10.4-7.1c-0.5-0.5-1.1-1.1-1.5-1.7l0-1.4c0,0,5.9,5.6,11.7,7.7C34.3,32.5,34.4,33.3,34.4,34.1
		z" opacity=".15"/><path fill="#E4CA51" d="M44,43c-2.2,1.8-13.1,4.8-24-4c-0.9-0.7-1.7-1.4-2.5-2.1c-1.2-1-2.2-2-3.2-3c-1-1-1.9-2-2.7-2.9
		c-1.1-1.3-2-2.5-2.7-3.8c2.5-0.7,7.8-1.8,11.3-0.9c0,0-0.3-2,1-2.8l1.3,0.4C23.2,25,24,26,25,27c7.9,7.9,15.9,8.6,19,10
		S45.6,41.7,44,43z"/><path d="M10,27.2c0.8,1,1.8,2,2.9,3.1c1,1,2.2,2.1,3.5,3.2c0.9,0.7,1.8,1.5,2.8,2.2c11.9,9.2,23.5,5.7,25.9,3.8
		c0.2-0.2,0.5-0.4,0.7-0.7c0.4,1.5-0.6,3.3-1.7,4.2c-2.2,1.8-13.1,4.8-24-4c-5.5-4.4-9-8.2-11.1-11.8" opacity=".1"/><path fill="#E4CA51" d="M6.1,23.4c0,0,0-0.1-0.1-0.1c0,0,0,0,0,0C6.1,23.3,6.1,23.3,6.1,23.4z"/><path d="M44,43c-2.2,1.8-13.1,4.8-24-4c-5.5-4.4-9-8.2-11.1-11.8C6.8,23.6,6,20.3,6,17c0-6,1.1-10.9,4.7-11.8
		C10.2,7.1,10,9.5,10,12c0,3.3,0.8,6.6,2.9,10.2C15,25.8,18.5,29.6,24,34c8.8,7.1,17.5,6.5,21.8,5.1C46,40.5,45,42.2,44,43z" opacity=".1"/><path d="M17.5,36.9c-1.2-1-2.2-2-3.2-3c-1-1-1.9-2-2.7-2.9l1.2-3.6l7.4-1.1C20.2,26.2,16.5,32.2,17.5,36.9z" opacity=".1"/><path fill="#E9D16E" d="M14.3,33.9c-0.4,1.8-0.3,3.5,0.2,4.6c0.7,1.5,2.2,6-0.9,6.5c-3.1,0.5-7-3.9-8-7S5,28.6,8.9,27.2
		c2.5-0.7,7.8-1.8,11.3-0.9C16.8,27.4,14.9,30.8,14.3,33.9z"/><path fill="#E4CA51" d="M14.3 33.9c-.4 1.8-.3 3.5.2 4.6.7 1.5 2.2 6-.9 6.5-.5.1-1 0-1.5-.1 2.5-.9 1.1-4.9.4-6.4-.5-1.1-.6-2.8-.2-4.6.6-3.1 2.6-6.4 6-7.6-.7-.2-1.4-.3-2.2-.3 1.5-.1 2.9 0 4.2.3C16.8 27.4 14.9 30.8 14.3 33.9zM32.1 25.4l0 .1c-4.3-4.3-9.6-1.7-9.6-1.7l-1.2-.4C22 22.7 23.4 22 26 22 28.9 22 30.8 23.5 32.1 25.4z"/></svg>