<svg xmlns="http://www.w3.org/2000/svg" width="50" height="50" enable-background="new 0 0 50 50" viewBox="0 0 50 50"><path fill="#53C289" d="M36,26c0,0-6,7.1-6,9v8c0,0-1.3,2-6,2s-6-2-6-2v-7c0-4.8-5-9-5-9l1-2l1.6,1.3l2.8,2.3
		c0.4,0.3,1-0.1,0.8-0.6l-1.2-2.9L17,23l3-2c-0.6,1.1,0.2,4.1,1,6.4c0.2,0.5,1,0.4,1-0.2V23l2-1v4.7c0,0.2,0.1,0.4,0.3,0.5l1,0.5
		c0.3,0.2,0.7-0.1,0.7-0.5V22l2-1v6.6c0,0.5,0.6,0.7,0.9,0.3l2.8-3.5L32,24L36,26z"/><path d="M34.3 25c-1.5 1.8-5.3 6.8-5.3 8.4v8c0 0-.3.4-1 .8-.5-.4-.7-2.1-.7-2.1s0 1.5-.3 2.5c-.5.2-1 .4-1.7.5-.7-.7-1.3-1.9-1.3-1.9s.4 1.3.3 2.1c-.5 0-.9.1-1.5.1-.1 0-.2 0-.4 0-.8-1-1.1-2.6-1.2-2.6-.1 0 .2 2 0 2.5-.2 0-.4-.1-.5-.1-1-1.1-1.2-3.8-1.2-3.8L19.3 43c-.5-.1-1-.3-1.3-.5V43c0 0 1.3 2 6 2 4.7 0 6-2 6-2v-8c0-1.9 6-9 6-9L34.3 25zM26.8 23.2c0 0 0 5.3-.6 5.5-.5.2-1.8-.5-2.5-1.1C22.9 27 23.3 24 23.3 24l.7-1.2v3.9c0 .2.1.4.3.5l1 .5c.3.2.7-.1.7-.5v-4.7L26.8 23.2zM19.2 30c-1.2-.3-3.4-2.4-3.4-2.4l-.2-1.2.1 0 2.8 2.3c.4.3 1-.1.8-.6l-1.2-2.9c.4 0 .8.2 1.3.9C20.2 27.4 20.4 30.3 19.2 30z" opacity=".1"/><ellipse cx="13" cy="15" fill="#2F7553" rx="8" ry="7" transform="rotate(-26.565 13 15)"/><ellipse cx="38" cy="15" fill="#2F7553" rx="8" ry="7" transform="rotate(-153.435 38.001 15)"/><ellipse cx="38.2" cy="11.6" fill="#FFF" opacity=".15" rx="3.7" ry="2.5" transform="rotate(-153.435 38.191 11.62)"/><path d="M34.9,21.3c4,2,8.6,0.8,10.3-2.7c0.8-1.5,0.8-3.2,0.3-4.8c-0.1,0.3-0.2,0.6-0.3,0.8c-1.7,3.5-6.3,4.7-10.3,2.7
		c-2.2-1.1-3.8-3-4.4-5C29.4,15.6,31.2,19.4,34.9,21.3z" opacity=".15"/><ellipse cx="38" cy="15" opacity=".1" rx="8" ry="7" transform="rotate(-153.435 38.001 15)"/><ellipse cx="12.8" cy="11.6" fill="#FFF" opacity=".15" rx="3.7" ry="2.5" transform="rotate(-26.565 12.81 11.62)"/><path d="M16.1,21.3c-4,2-8.6,0.8-10.3-2.7c-0.8-1.5-0.8-3.2-0.3-4.8c0.1,0.3,0.2,0.6,0.3,0.8c1.7,3.5,6.3,4.7,10.3,2.7
		c2.2-1.1,3.8-3,4.4-5C21.6,15.6,19.8,19.4,16.1,21.3z" opacity=".15"/><ellipse cx="13" cy="15" opacity=".1" rx="8" ry="7" transform="rotate(-26.565 13 15)"/><ellipse cx="25.6" cy="12.5" fill="#2F7553" rx="8.6" ry="7.5" transform="rotate(-9.021 25.62 12.543)"/><ellipse cx="26.5" cy="9" fill="#FFF" opacity=".15" rx="4" ry="2.7" transform="rotate(-9.021 26.521 9.01)"/><path d="M26.8,20c-4.7,0.8-9-2-9.7-6.1c-0.3-1.8,0.2-3.6,1.2-5.1c0,0.3,0,0.6,0.1,1c0.7,4.1,5,6.8,9.7,6.1c2.6-0.4,4.8-1.8,6.1-3.7
		C34.2,15.9,31.1,19.3,26.8,20z" opacity=".15"/><path fill="#53C289" d="M12.2,26.9c0.2,0.2,0.4,0.5,0.7,0.8c-0.4-0.4-0.7-0.7-0.7-0.7L12.2,26.9z"/><ellipse cx="12.5" cy="24.3" fill="#2F7553" rx="5.4" ry="4.7" transform="rotate(-26.565 12.542 24.348)"/><ellipse cx="12.4" cy="22.1" fill="#FFF" opacity=".15" rx="2.5" ry="1.7" transform="rotate(-26.565 12.413 22.067)"/><path d="M14.7,28.6c-2.7,1.3-5.8,0.5-6.9-1.8c-0.5-1-0.6-2.2-0.2-3.3c0.1,0.2,0.1,0.4,0.2,0.6c1.2,2.3,4.3,3.1,6.9,1.8
		c1.5-0.7,2.5-2,2.9-3.4C18.3,24.7,17.1,27.3,14.7,28.6z" opacity=".15"/><ellipse cx="36.5" cy="22.3" fill="#2F7553" rx="5.4" ry="4.7" transform="rotate(-26.565 36.543 22.348)"/><ellipse cx="36.4" cy="20.1" fill="#FFF" opacity=".15" rx="2.5" ry="1.7" transform="rotate(-26.565 36.414 20.067)"/><path d="M38.7,26.6c-2.7,1.3-5.8,0.5-6.9-1.8c-0.5-1-0.6-2.2-0.2-3.3c0.1,0.2,0.1,0.4,0.2,0.6c1.2,2.3,4.3,3.1,6.9,1.8
		c1.5-0.7,2.5-2,2.9-3.4C42.3,22.7,41.1,25.3,38.7,26.6z" opacity=".15"/><ellipse cx="29.5" cy="19.3" fill="#2F7553" rx="5.4" ry="4.7" transform="rotate(-26.565 29.542 19.348)"/><ellipse cx="29.4" cy="17.1" fill="#FFF" opacity=".15" rx="2.5" ry="1.7" transform="rotate(-26.565 29.414 17.067)"/><path d="M31.7,23.6c-2.7,1.3-5.8,0.5-6.9-1.8c-0.5-1-0.6-2.2-0.2-3.3c0.1,0.2,0.1,0.4,0.2,0.6c1.2,2.3,4.3,3.1,6.9,1.8
		c1.5-0.7,2.5-2,2.9-3.4C35.3,19.7,34.1,22.3,31.7,23.6z" opacity=".15"/><ellipse cx="19.5" cy="20.3" fill="#2F7553" rx="5.4" ry="4.7" transform="rotate(-26.565 19.542 20.348)"/><path d="M32.1,24.6c0,0-2.2,4.6-3.4,4.4c-1.2-0.2-0.7-1.4-0.7-1.4c0,0.5,0.6,0.7,0.9,0.3l2.8-3.5L32.1,24.6z" opacity=".1"/><ellipse cx="19.4" cy="18.1" fill="#FFF" opacity=".15" rx="2.5" ry="1.7" transform="rotate(-26.565 19.414 18.067)"/><path d="M21.7,24.6c-2.7,1.3-5.8,0.5-6.9-1.8c-0.5-1-0.6-2.2-0.2-3.3c0.1,0.2,0.1,0.4,0.2,0.6c1.2,2.3,4.3,3.1,6.9,1.8
		c1.5-0.7,2.5-2,2.9-3.4C25.3,20.7,24.1,23.3,21.7,24.6z" opacity=".15"/><circle cx="21" cy="33" r="1" opacity=".6"/><circle cx="27" cy="33" r="1" opacity=".6"/><path d="M21.4,35.3c-0.2-0.1-0.4,0-0.4,0.2c0.2,1.3,1,2.5,3,2.5s2.8-1.2,3-2.5c0-0.3-0.2-0.4-0.4-0.2C25.2,36.1,24,36,24,36
		S22.8,36.1,21.4,35.3z" opacity=".6"/></svg>