<svg xmlns="http://www.w3.org/2000/svg" width="50" height="50" enable-background="new 0 0 50 50" viewBox="0 0 50 50"><path fill="#579957" d="M27.5,20.2l5.9-5.9c0,0,1-2.9-0.1-4s-1.8-3.8,0.1-3.2s2.1,0.5,2.1-0.1s2-1.2,2.2,0.4S37.6,4,39.2,4.2
		S39,7,40.1,7.1s0.6-4.5,2.2-3S40.6,8,42,8.8s1.5-3,2.4-1.5s-1.2,2.6,0.2,3.6s1,1.9-0.1,2.2s-1.8,0-0.5,1.2s0.4,1.4-1.4,1.4
		s-0.8,0.9-0.5,1.6s-3.2,1.1-3.8,0.5s-1.4-2-2.5-1.8s-6.4,6.4-6.4,6.4L27.5,20.2z"/><path d="M37 16.4c-.3-.2-.7-.4-1.1-.3-1.1.3-6.4 6.4-6.4 6.4l-1-1.1c.5-.6 5.3-6.1 6.3-6.3C35.8 14.9 36.5 15.7 37 16.4zM44 14.4c1.2 1.2.4 1.4-1.4 1.4-1.7 0-.7.9-.5 1.6.3.7-3.2 1.1-3.7.5-.2-.2-.4-.5-.6-.8 1 .3 3.6-.1 3.4-.7-.2-.8-1.2-1.6.5-1.6 1.8 0 2.6-.1 1.4-1.4-1.2-1.3-.6-.9.5-1.3.8-.2 1.2-.7 1-1.3 0 0 .1.1.1.1 1.5 1 1 1.9-.1 2.2C43.4 13.5 42.8 13.1 44 14.4z" opacity=".1"/><path fill="#579957" d="M37.8 17.1c-.2 0-.3-.1-.4-.2-.1-.1-.2-.3-.4-.5C37.3 16.6 37.5 16.8 37.8 17.1zM44.5 10.8c-.2-.2-.3-.3-.4-.5C44.3 10.4 44.4 10.6 44.5 10.8z"/><path fill="#ED8026" d="M33,24c0,3.1-2,5.7-4.8,6.6c-1,1.7-2.7,3-4.8,3.3c-0.9,1.8-2.6,3-4.7,3.1c-0.6,1.6-2.1,2.8-3.9,3
		c-0.3,1.4-1.4,2.5-2.8,2.9C11.3,43.3,9.9,43,8,44c-3.2,1.8-3.4,1-4,0s2.8-4.2,3.2-6.1c0.4-1.4,1.5-2.5,2.9-2.8c0-0.4,0.1-0.7,0.2-1
		c0.4-1.3,1.4-2.3,2.7-2.8c0,0,0,0,0,0c0,0,0,0,0.1,0c0-0.3,0.1-0.7,0.1-1c0.4-1.5,1.3-2.8,2.7-3.5c0,0,0,0,0,0
		c0.1,0,0.2-0.1,0.2-0.1c0.1-0.4,0.2-0.9,0.3-1.2c0.5-1.4,1.4-2.5,2.6-3.3c0,0,0,0,0,0c0.1-0.1,0.2-0.1,0.3-0.2
		c0.2-0.5,0.4-0.9,0.6-1.3c1.2-2.1,3.5-3.5,6-3.5C29.9,17,33,20.1,33,24z"/><path d="M33 24c0 3.1-2 5.7-4.8 6.6-1 1.7-2.7 3-4.8 3.3-.9 1.8-2.6 3-4.7 3.1-.6 1.6-2.1 2.8-3.9 3-.3 1.4-1.4 2.5-2.8 2.9C11.3 43.3 9.9 43 8 44c-3.2 1.8-3.4 1-4 0 0 0 0-.1 0-.1.5-.2 1.2-.5 2-1.1 1.9-1.2 3.3-1 4.2-1.5 1.4-.5 2.4-1.7 2.7-3.2 1.8-.3 3.3-1.6 3.8-3.4 2.1-.2 3.9-1.6 4.7-3.5 2.1-.4 3.8-1.9 4.7-3.7 2.8-1.1 4.7-4 4.5-7.2 0-.7-.2-1.4-.4-2C31.8 19.6 33 21.7 33 24zM21.9 22.3c-1.2-1-2.7-.4-2.9-.3.1-.1.2-.1.3-.2.2-.5.4-.9.6-1.3C21.6 20.7 21.9 22.3 21.9 22.3zM18.2 26.8c-.9-.4-1.8-.3-2.3-.1.1 0 .2-.1.2-.1.1-.4.2-.9.3-1.2C17.4 25.6 18.2 26.8 18.2 26.8zM15.8 31.2c-1.1-.3-2.3-.1-2.9.1 0 0 0 0 .1 0 0-.3.1-.7.1-1C14.4 30.3 15.6 31.1 15.8 31.2zM12.2 35.2c-1-.2-1.7-.1-2.1-.1 0-.4.1-.7.2-1C11.4 34.2 12.2 35.2 12.2 35.2z" opacity=".2"/><path d="M26.6 26.2c1 1.2 1.5 4.5 1.4 4.7.1-.1.1-.2.2-.3.5-.2.9-.4 1.3-.6C29.3 28.4 26.6 26.2 26.6 26.2zM22 30c.4.9 1.5 3.7 1.3 4.2 0-.1.1-.2.1-.2.4-.1.9-.2 1.2-.3C24.3 32.6 22 30 22 30zM17.9 32.9c.3 1.1.9 3.6.8 4.2 0 0 0 0 0-.1.3 0 .7-.1 1-.1C19.7 35.6 17.1 31.6 17.9 32.9zM14.2 36.2c.2 1 .7 3.3.6 3.8.4 0 .7-.1 1-.2C15.8 38.6 14.2 36.2 14.2 36.2z" opacity=".2"/><ellipse cx="26.4" cy="19.8" fill="#FFF" opacity=".2" rx="2.2" ry="1.4"/></svg>