<svg xmlns="http://www.w3.org/2000/svg" width="50" height="50" enable-background="new 0 0 50 50" viewBox="0 0 50 50"><polygon fill="#EBB843" points="45 15 45 32 44 32.3 6.1 42.7 5 43 5 26 20.1 21.8 25.8 20.3"/><path fill="#F9D473" d="M45,15c0,0-6.5-6-26-6L5,26L45,15z"/><circle cx="17" cy="29" r="3" fill="#C27F20"/><circle cx="38.5" cy="28.5" r="2.5" fill="#C27F20"/><circle cx="25" cy="32" r="2" fill="#C27F20"/><circle cx="11" cy="36" r="2" fill="#C27F20"/><circle cx="31" cy="26" r="2" fill="#C27F20"/><ellipse cx="23" cy="13.5" fill="#C27F20" rx="2" ry="1.5"/><ellipse cx="30" cy="15.5" fill="#C27F20" rx="2" ry="1.5"/><ellipse cx="18.5" cy="18.1" fill="#C27F20" rx="2.5" ry="1.9"/><circle cx="40" cy="22" r="2" fill="#C27F20"/><path d="M44,32.3L6.1,42.7L7.2,27l32.3-8.6c1.8-0.5,3.6,0.8,3.8,2.7L44,32.3z" opacity=".2"/></svg>