<svg xmlns="http://www.w3.org/2000/svg" width="50" height="50" enable-background="new 0 0 50 50" viewBox="0 0 50 50"><path fill="#DBDBD4" d="M42,11c0.7-1.5,0.1-2.4-0.5-2.6c-0.4-0.1-0.6-0.4-0.7-0.4c0,0,0,0,0,0s-0.1,0.3-0.1,0.3
		c0.1-0.2,0.7-1.9-1.6-2.1c-2.4-0.2-2.2,2.6-2.2,2.6l-8.5,3.9l1.4,3.1l8.4-3.9C38.2,11.8,40.9,13.5,42,11z"/><path d="M42,11c-1.1,2.5-3.8,0.8-3.8,0.8l-8.4,3.9l-0.5-1.2l8-3.7c0,0,2.6,1.7,3.8-0.8c0.3-0.7,0.4-1.3,0.3-1.7
		c0.1,0,0.1,0.1,0.2,0.1C42.1,8.6,42.7,9.5,42,11z" opacity=".1"/><path fill="#C09869" d="M17.3,19.6c-1.8-3.8,0.1-6.5,3.4-8.1s6.1-0.1,8.6-1.2s4-0.2,4.4,0.7l0.4,0.8l0.4,0.8
		c0.4,0.9,0.2,2.6-2.3,3.8c-2.5,1.2-3.2,4.2-6.5,5.8C22.3,23.8,19.1,23.4,17.3,19.6z"/><path d="M17.3,19.6c-1.8-3.8,0.1-6.5,3.4-8.1s6.1-0.1,8.6-1.2s4-0.2,4.4,0.7l0.4,0.8l0.4,0.8c0.4,0.9,0.2,2.6-2.3,3.8
		c-2.5,1.2-3.2,4.2-6.5,5.8C22.3,23.8,19.1,23.4,17.3,19.6z" opacity=".1"/><path d="M25.7,22.2c3.4-1.6,4-4.6,6.5-5.8c2.5-1.2,2.7-2.9,2.3-3.8L33.8,11c-0.3-0.7-1.5-1.5-3.4-1c0.7,0.2,1.1,0.6,1.3,1.1
		l0.8,1.6c0.4,0.9,0.2,2.6-2.3,3.8s-3.2,4.2-6.5,5.8c-0.8,0.4-1.6,0.6-2.4,0.8C22.6,23.3,24.1,22.9,25.7,22.2z" opacity=".1"/><path fill="#DBDBD4" d="M42.9,32.8c0,6.5-9.6,11.7-21.5,11.7S0,39.3,0,32.8c0-3.9,3.6-7.4,9-9.5c3.5-1.4,7.8-2.2,12.4-2.2
		c9.7,0,17.9,3.5,20.5,8.3C42.6,30.5,42.9,31.6,42.9,32.8z"/><path fill="#6BB678" d="M6.7 31.2c-2 .7-1.5 1.7-.2 3.2s1 4.1 3.4 3.3 3.8 1.3 5-.8-6.4-8.2-6.4-8.2M24.3 36.7c-.9 2.2.4 2.6 2.6 2.6s4.3 2.1 5.5-.6c1.1-2.7 4-2.4 3-5.1-1-2.6-12-.3-12-.3"/><path fill="#6BB678" d="M14.3,36.4c-1.4,1.9-0.3,2.6,1.8,3.2s3.6,3.3,5.4,1c1.9-2.3,4.5-1.2,4.3-4.1c-0.2-2.8-11.5-3.7-11.5-3.7"/><path d="M42,29.4c-0.1,0.1-0.2,0.1-0.3,0.2c-2.6,1.9-2.7,5.5-6.3,8c-2.3,1.6-4.7,2.3-6.9,1.5c-1.3,0.9-3.2,1.8-5.7,2
		c-5.3,0.4-6.4-2.7-6.4-2.7s-3.8,1.2-7.6-3C5.5,31.5,7,25.8,9,23.3c3.5-1.4,7.8-2.2,12.4-2.2C31.2,21.1,39.3,24.6,42,29.4z" opacity=".1"/><path fill="#C09869" d="M36.8,20.6c0,0-7.7,13-7.8,13.2s-2.8,3.8-8,4.2c-5.3,0.4-6.4-2.7-6.4-2.7s-3.8,1.2-7.6-3
		c-3.7-4.2-1.6-10.6,0.6-12.7C18.7,9.5,29,14.5,33.8,18c0.9,0.7,1.7,1.3,2.2,1.8C36.5,20.3,36.8,20.6,36.8,20.6z"/><path d="M36.8,20.6c0,0-7.7,13-7.8,13.2s-2.8,3.8-8,4.2c-5.3,0.4-6.4-2.7-6.4-2.7s-3.8,1.2-7.6-3c-3.2-3.6-2.1-8.8-0.3-11.5
		c-1.1,2.8-1.3,6.7,1.3,9.6c3.7,4.2,7.6,3,7.6,3s1.1,3.1,6.4,2.7c5.3-0.4,8-4,8-4.2c0.1-0.2,4.6-7.8,6.7-11.4
		C36.8,20.6,36.8,20.6,36.8,20.6z" opacity=".1"/><path fill="#DBDBD4" d="M49.9,18.4c0.5-1.9-0.4-2.8-1.1-2.9c-0.5-0.1-0.8-0.3-0.9-0.4c0,0,0,0,0,0s-0.1,0.4-0.1,0.3
		c0-0.2,0.4-2.3-2.2-2c-2.8,0.3-2,3.4-2,3.4l-8.9,6.2l2.2,3.2l8.8-6.2C45.7,20.1,49.1,21.5,49.9,18.4z"/><path d="M49.9,18.4c-0.8,3.1-4.1,1.7-4.1,1.7l-8.8,6.2l-0.8-1.1l8.6-6.1c0,0,3.4,1.4,4.1-1.7c0.2-0.8,0.2-1.4,0-1.9
		C49.6,15.7,50.3,16.6,49.9,18.4z" opacity=".1"/><path fill="#C09869" d="M23.4,33.4c-2.8-4-1.3-7.4,2.2-9.9s7-1.3,9.6-3.2c2.6-1.9,4.5-1.1,5.2-0.2l0.6,0.9l0.6,0.9
		c0.6,0.9,0.8,2.9-1.9,4.8c-2.6,1.9-2.7,5.5-6.3,8C30,37.2,26.2,37.4,23.4,33.4z"/><path d="M36 19.9c-.2.1-.5.3-.7.4-2.7 1.9-6.1.7-9.6 3.2-3.5 2.5-5.1 5.9-2.2 9.9 0 0 .1.1.1.1-.7-.5-1.4-1.2-2-2.1-2.8-4-1.3-7.4 2.2-9.9 3.5-2.5 7-1.3 9.6-3.2.2-.1.3-.2.5-.3C34.8 18.7 35.5 19.4 36 19.9zM33.5 34.7c3.5-2.5 3.6-6.1 6.3-8 2.6-1.9 2.5-3.9 1.9-4.8l-1.2-1.7c-.5-.8-2-1.5-4.1-.5.8.1 1.4.5 1.7.9l1.2 1.7c.6.9.8 3-1.9 4.8-2.6 1.9-2.7 5.5-6.3 8-.8.6-1.7 1.1-2.6 1.4C30.2 36.5 31.9 35.8 33.5 34.7z" opacity=".1"/></svg>