<svg xmlns="http://www.w3.org/2000/svg" width="50" height="50" enable-background="new 0 0 50 50" viewBox="0 0 50 50"><path fill="#D95E46" d="M33.7,32.7L19.9,46.6c-0.4,0.4-1,0.4-1.4,0L4.4,32.5c-0.4-0.4-0.4-1,0-1.4l13.9-13.9L33.7,32.7z"/><path fill="#9C815C" d="M33.7,32.7L18.3,17.3l12-12c0.4-0.4,1-0.4,1.4,0l14.1,14.1c0.4,0.4,0.4,1,0,1.4L33.7,32.7z"/><rect width="2" height="17.9" x="31.3" y="9.7" fill="#856A51" transform="rotate(45.001 32.335 18.665)"/><rect width="2" height="21.9" x="31.3" y="7.7" fill="#856A51" transform="rotate(134.999 32.335 18.665)"/><path d="M4.4 31.1l.7-.7c.4-.4 1-.4 1.4 0l14.1 14.1c.4.4.4 1 0 1.4l-.7.7c-.4.4-1 .4-1.4 0L4.4 32.5C4 32.2 4 31.5 4.4 31.1zM33.7 32.7l-2.1 2.1c-2.1.7-3.4-.6-4-2.7-.6-2.1-4.8-.6-6.9-1.2-2.1-.6 1.4-2.8.1-5.5-1.3-2.7-4.8.9-8.2.3-.9-.2-1.5-.6-1.7-1.2l6.5-6.5c1.8.2 2.5 2.8 4.8 3.2l6.1 6.1c.2.6.6.9 1.1 1.1L33.7 32.7z" opacity=".1"/><path fill="#D2D5D7" d="M23.7,19.9c-3-0.5-3.3-4.7-6.8-2.6c-4.3,2.6-6.2,6.4-2.8,7s6.9-3,8.2-0.3s-2.2,4.9-0.1,5.5
		c2.1,0.6,6.2-0.8,6.9,1.2c0.6,2.1,2,3.4,4.1,2.7c2.1-0.7,4.2-2.8,2.2-4.9s-4.8-0.6-5.5-2.6S27.1,20.5,23.7,19.9z"/></svg>