<svg xmlns="http://www.w3.org/2000/svg" data-name="Layer 1" viewBox="0 0 2800 2800"><path fill="#f9a528" d="M2676.82758,2322.50635c-31.7646,181.1496-150.3052,328.003-264.7042,328.003a125.09412,125.09412,0,0,1-29.233-3.3956.2102.2102,0,0,1-.1714-.0576l-869.6691-2.762h-.0576l-206.4686-.6329c-.0576.0576-.1152.0576-.1152,0l-867.2512-2.7621a123.31424,123.31424,0,0,1-39.1305,6.2146c-114.3989,0-232.9395-146.8534-264.7042-328.003-31.7646-181.1497,35.2165-328.003,149.6155-328.003,34.181,0,68.7076,13.1202,101.162,36.3108,18.3002-12.4298,70.8375-42.2957,151.3997-40.3963-6.2139-147.4863,56.7969-224.1351,125.6774-322.6517,42.1229-60.2489,150.6508-140.9838,146.911-256.7624-6.7322-205.3763,21.5215-398.0924,632.7579-398.0924,611.2939,0,608.2439,178.4452,606.5172,380.6563-.3442,45.057,62.8971,134.2508,124.2965,222.4661,34.0082,48.9127,85.2812,109.1046,125.735,182.8762l-7.0778-4.5462,63.2329,221.2677s99.244,15.6622,204.9231-16.2939c-.8626.805-1.7842,1.5538-2.7044,2.3012C2653.17758,2022.00975,2705.65738,2158.15925,2676.82758,2322.50635Z"/><ellipse cx="2477.578" cy="2302.557" fill="#fff" rx="249.726" ry="147.944" transform="rotate(-75.001 2477.578 2302.557)"/><ellipse cx="2586.45" cy="2202.078" fill="#efb864" rx="22.814" ry="21.667" transform="rotate(-76.073 2586.45 2202.078)"/><ellipse cx="2514.424" cy="2140.938" fill="#efb864" rx="34.288" ry="39.79" transform="rotate(-76.072 2514.425 2140.938)"/><ellipse cx="2438.497" cy="2173" fill="#efb864" rx="22.814" ry="21.667" transform="rotate(-76.073 2438.497 2173)"/><ellipse cx="2478.227" cy="2286.902" fill="#efb864" rx="78.177" ry="74.25" transform="rotate(-76.072 2478.227 2286.902)"/><ellipse cx="327.705" cy="2302.557" fill="#fff" rx="147.944" ry="249.726" transform="rotate(-14.999 327.705 2302.556)"/><ellipse cx="218.832" cy="2202.078" fill="#efb864" rx="21.667" ry="22.814" transform="rotate(-13.93 218.832 2202.078)"/><ellipse cx="290.858" cy="2140.938" fill="#efb864" rx="39.79" ry="34.288" transform="rotate(-13.928 290.858 2140.938)"/><ellipse cx="366.786" cy="2173" fill="#efb864" rx="21.667" ry="22.814" transform="rotate(-13.929 366.786 2173)"/><ellipse cx="327.055" cy="2286.902" fill="#efb864" rx="74.25" ry="78.177" transform="rotate(-13.927 327.055 2286.902)"/><path fill="#f99b28" d="M2318.09688,1832.34425a514.38583,514.38583,0,0,1,21.464,53.6887l-16.7464-10.2427C2317.40568,1858.12405,2316.42788,1843.85315,2318.09688,1832.34425Z"/><path fill="#451661" d="M2344.04448,1891.66505l-23.3154-14.2578-.2735-.8936c-5.0683-16.5551-6.6845-31.5332-4.7998-44.5239l1.1914-8.1885,3.4864,7.5025a520.38157,520.38157,0,0,1,21.5674,53.9477Zm-19.1455-17.4878,10.1172,6.1841c-4.4483-12.6856-9.5361-25.4932-15.1856-38.2398C2319.72808,1851.836,2321.42728,1862.57325,2324.899,1874.17725Z"/><path fill="#f99b28" d="M2557.76868,1998.24455c-4.6614,3.8557-9.8974,7.7687-15.5943,11.7965l-24.7443-15.1339c3.2804-.288,6.5032-.4028,9.7822-.4028A124.144,124.144,0,0,1,2557.76868,1998.24455Z"/><path fill="#451661" d="M2542.272,2012.99075l-32.5146-19.8853,7.4561-.6543c3.1591-.2783,6.4306-.4126,10-.4126a127.18053,127.18053,0,0,1,31.1621,3.8159l4.7119,1.1915-3.7451,3.0981c-4.3848,3.6255-9.5362,7.5195-15.7471,11.9116Zm-16.7285-16.0108,16.5284,10.1099c3.7939-2.7026,7.163-5.2124,10.1904-7.583a123.3152,123.3152,0,0,0-25.0488-2.5366Q2526.36373,1996.97025,2525.54348,1996.98Z"/><path fill="#f99b28" d="M2318.09688,1832.34425a514.38583,514.38583,0,0,1,21.464,53.6887l-16.7464-10.2427C2317.40568,1858.12405,2316.42788,1843.85315,2318.09688,1832.34425Z"/><path fill="#451661" d="M2344.04448,1891.66505l-23.3154-14.2578-.2735-.8936c-5.0683-16.5551-6.6845-31.5332-4.7998-44.5239l1.1914-8.1885,3.4864,7.5025a520.38157,520.38157,0,0,1,21.5674,53.9477Zm-19.1455-17.4878,10.1172,6.1841c-4.4483-12.6856-9.5361-25.4932-15.1856-38.2398C2319.72808,1851.836,2321.42728,1862.57325,2324.899,1874.17725Z"/><path fill="#f99b28" d="M2557.76868,1998.24455c-4.6614,3.8557-9.8974,7.7687-15.5943,11.7965l-24.7443-15.1339c3.2804-.288,6.5032-.4028,9.7822-.4028A124.144,124.144,0,0,1,2557.76868,1998.24455Z"/><path fill="#451661" d="M2542.272,2012.99075l-32.5146-19.8853,7.4561-.6543c3.1591-.2783,6.4306-.4126,10-.4126a127.18053,127.18053,0,0,1,31.1621,3.8159l4.7119,1.1915-3.7451,3.0981c-4.3848,3.6255-9.5362,7.5195-15.7471,11.9116Zm-16.7285-16.0108,16.5284,10.1099c3.7939-2.7026,7.163-5.2124,10.1904-7.583a123.3152,123.3152,0,0,0-25.0488-2.5366Q2526.36373,1996.97025,2525.54348,1996.98Z"/><path fill="#fff" d="M869.00858 2325.61055c-20.8317-74.9805-68.1906-171.2522-175.9711-218.8415-114.1096-50.3514-199.6788-39.8786-250.0877-23.2475-34.1235 11.2785-52.1932 25.3766-52.1932 25.3766-31.0158-21.0031-63.7582-32.8-96.1564-32.8-104.7881 0-169.756 123.202-155.5427 283.1181q-5.7825-21.92475-9.7822-44.7121c-31.8223-181.1496 35.1602-328.003 149.6154-328.003 32.4558 0 65.1982 11.7969 96.214 32.8583 0 0 63.4716-49.488 177.1794-37.1166 36.5989 3.971 78.4337 14.4437 125.0439 34.9875C840.811 2089.33365 865.32638 2273.64775 869.00858 2325.61055zM1938.09658 2333.96135c20.8317-74.9805 68.1906-171.2522 175.9711-218.8415 114.1096-50.3513 199.6788-39.8786 250.0877-23.2474 34.1235 11.2784 52.1932 25.3765 52.1932 25.3765 31.0158-21.0031 63.7582-32.8 96.1564-32.8 104.7881 0 169.756 123.202 155.5427 283.1181q5.7825-21.92475 9.7822-44.7121c31.8223-181.1496-35.1602-328.003-149.6154-328.003-32.4558 0-65.1982 11.7969-96.214 32.8583 0 0-63.4716-49.488-177.1794-37.1165-36.5989 3.9709-78.4337 14.4437-125.0438 34.9874C1966.29418 2097.68445 1941.77878 2281.99855 1938.09658 2333.96135z" opacity=".6"/><path fill="#fff" d="M2131.16648 1585.61685s162.7565 259.5984 125.2558 393.3891l91.8954 17.2968S2296.60658 1725.952 2131.16648 1585.61685zM748.74658 1571.45975s-154.1092 285.8569-116.6085 419.6476l-100.5427-8.9618S504.10188 1781.28355 748.74658 1571.45975z" opacity=".6"/><path fill="#451661" d="M2355.53378,2016.02785a19.72433,19.72433,0,0,1-19.6826-18.7207c-7.0459-138.2642-84.9122-240.8667-147.4756-323.3106-13.3789-17.6342-26.0205-34.292-36.9971-50.0683-20.166-28.9917-39.1113-53.0493-55.8301-74.2725-34.9853-44.4189-60.2588-76.5088-62.7881-112.5268q-.91545-13.125-1.7578-26.1353c-7.0361-107.0117-13.1152-199.4287-85.6885-267.3584-83.3837-78.0469-244.9707-114.397-508.5156-114.397-241.8652,0-393.7109,31.0059-477.8662,97.5806-76.499,60.5151-96.9971,147.2974-122.9492,257.1655-7.8369,33.1787-15.9424,67.4878-26.211,103.6035-22.3876,78.7696-59.2968,111.8628-91.8603,141.0621-16.2207,14.5434-31.543,28.2812-44.6533,47.0288-6.8408,9.7827-13.6182,19.2895-20.2686,28.623-60.0781,84.2749-107.5293,150.8399-101.084,279.4776a19.722,19.722,0,1,1-39.3945,1.975c-7.1387-142.3413,46.3818-217.4169,108.3545-304.3505,6.5869-9.2383,13.2959-18.6475,20.0684-28.3326,15.7177-22.4755,33.4716-38.396,50.6445-53.7915,31.3623-28.1201,60.9814-54.6801,80.2539-122.478,10.0195-35.2612,18.0225-69.1308,25.7568-101.8848,52.8174-223.5839,90.9766-385.1269,639.209-385.1269,274.1748,0,444.3262,39.7339,535.4688,125.0439,83.955,78.584,90.8252,183.0103,98.1006,293.5694q.8496,12.91995,1.7431,25.9643c1.6797,23.9087,23.8037,51.9995,54.4238,90.8789,17.0606,21.6553,36.3916,46.2012,57.2266,76.1548,10.5127,15.1074,22.9102,31.4478,36.04,48.7476,62.3682,82.185,147.7784,194.7388,155.4444,345.1513a19.71866,19.71866,0,0,1-18.6914,20.7007C2356.21248,2016.01805,2355.87068,2016.02785,2355.53378,2016.02785Z"/><path fill="#451661" d="M869.65968,2363.75975a19.72146,19.72146,0,0,1-19.7216-19.6118h0c-.0147-2.2534-3.5791-226.2109-180.5909-304.3164-176.9091-78.0615-274.5654-5.5884-278.6328-2.4658a19.72585,19.72585,0,0,1-24.2871-31.0889c4.7656-3.7427,119.0283-90.6982,318.8477-2.5342,200.6689,88.545,204.0625,329.9707,204.1064,340.2051a19.72343,19.72343,0,0,1-19.6338,19.812Z"/><path fill="#451661" d="M393.96148 2666.82865c-61.4111 0-124.873-36.7237-178.6865-103.4082-52.0606-64.5069-89.5069-150.066-105.4444-240.9107-21.0205-119.8193-1.0888-230.0268 53.3106-294.8071 30.9521-36.8506 70.9668-56.3281 115.7324-56.3281 61.416 0 124.8731 36.7236 178.6865 103.4057 52.0606 64.5093 89.5069 150.0659 105.4444 240.9131a19.72542 19.72542 0 01-38.8575 6.8164c-30.1464-171.8652-140.1757-311.687-245.2734-311.687-33.2031 0-61.9775 14.2139-85.5224 42.251-46.2989 55.1269-63.4131 155.7568-44.6631 262.6196 30.1464 171.8652 140.1757 311.687 245.2734 311.687a19.72415 19.72415 0 010 39.4483zM1930.33848 2367.17045h-.0879a19.72349 19.72349 0 01-19.6338-19.812c.0439-10.2344 3.4375-251.6602 204.1064-340.2051 199.9951-88.2447 315.5957 2.4463 320.4248 6.3501a19.72331 19.72331 0 01-24.8144 30.664c-4.0381-3.1958-102.8955-78.9282-279.6826-.9253-177.5196 78.3301-180.5811 302.0435-180.5909 304.292A19.722 19.722 0 011930.33848 2367.17045z"/><path fill="#451661" d="M2392.67238,2666.82865a19.72415,19.72415,0,0,1,0-39.4483c96.753,0,226.7725-126.6064,258.6426-308.2788,18.75-106.8628,1.6309-207.4927-44.668-262.6221-23.5449-28.0346-52.3193-42.2485-85.5224-42.2485-105.0928,0-215.1221,139.8218-245.2734,311.687a19.72542,19.72542,0,0,1-38.8575-6.8164c15.9424-90.8472,53.3887-176.4038,105.4444-240.9106,53.8134-66.6846,117.2754-103.4082,178.6865-103.4082,44.7607,0,84.7803,19.4775,115.7275,56.3281,54.4043,64.7778,74.336,174.9853,53.3203,294.8071C2657.75058,2510.71045,2521.51028,2666.82865,2392.67238,2666.82865Z"/><path fill="#451661" d="M2392.67238,2666.82865H393.96148a19.72415,19.72415,0,0,1,0-39.4483h1998.7109a19.72415,19.72415,0,0,1,0,39.4483Z"/><g opacity=".3"><path fill="#6b184e" d="M2115.44568,1537.90265c-98.5728,76.4192-164.2597,142.3184-260.1858,182.8298-333.239,140.6382-641.5047,87.5248-861.7272-.6336-117.4476-46.8981-209.8642-103.752-267.6966-146.5078,18.0683-24.5715,99.8782-112.496,71.0671-255.1923,46.8068,32.2142,114.2886,167.9808,163.7098,215.2147,165.8952,158.5531,255.558,145.9404,455.7656,145.9404,233.2489,0,274.5296-36.956,418.188-108.0942,56.6927-28.0737,182.4982-232.6492,224.4273-267.3324C2058.24648,1339.57485,2020.91848,1494.50545,2115.44568,1537.90265Z"/><path fill="#451661" d="M1432.26228,1809.74605c-173.0127,0-324.3994-41.2231-439.6485-87.3559-131.8017-52.6343-224.6386-114.5776-268.2421-146.8164l-1.9776-1.4624,1.4551-1.98c1.5332-2.085,3.5205-4.6216,5.8594-7.605,24.873-31.7431,90.9375-116.0644,64.7754-245.6396l-1.2061-5.9741,5.0195,3.4545c25.7422,17.7173,57.7686,66.46,88.7354,113.5962,25.9717,39.5288,52.8271,80.4029,75.2832,101.8677,153.3887,146.5918,240.1269,146.2109,412.959,145.3809,13.1885-.0611,26.8652-.1245,41.1035-.1245,205.1514,0,260.2539-28.1031,370.0391-84.0894,14.58-7.4365,30.1074-15.354,47.0556-23.7476,33.2959-16.4892,91.0205-95.1147,141.9434-164.4848,34.8096-47.4121,64.8681-88.3594,82.0068-102.5366l4.1504-3.4327-.1123,5.3833c-.1221,5.7227-1.1475,14.2652-2.4463,25.0806-6.6553,55.3784-20.498,170.6104,57.461,206.4014l3.6962,1.6968-3.2177,2.4926c-24.2041,18.7671-46.2744,36.7749-67.6172,54.1895-64.6289,52.7319-120.4444,98.2739-193.1201,128.9624C1706.73978,1786.08885,1563.29258,1809.74605,1432.26228,1809.74605Zm-702.959-236.665c44.2139,32.4854,135.8301,93.0908,265.1416,144.729,201.6748,80.7324,514.5557,146.377,859.8584.6519,72.0215-30.4151,127.583-75.7495,191.9141-128.2422,20.4443-16.6797,41.5478-33.8989,64.5752-51.8237-77.1729-39.0918-63.3643-154.043-56.6748-209.7242.8886-7.3803,1.6455-13.6889,2.0654-18.6914-17.4268,16.8408-46.333,56.2158-76.792,97.7051-51.2598,69.8218-109.3555,148.9624-143.7305,165.9839-16.9287,8.3838-32.4365,16.2915-47.0019,23.7207-110.4883,56.3452-165.9424,84.6289-372.2803,84.6289q-21.34275,0-41.0791.1245c-174.1065.8447-261.5625,1.2232-416.3916-146.748-22.8613-21.8506-49.8731-62.9639-75.9961-102.7246-28.6816-43.6548-58.2764-88.7012-82.3828-108.4449,23.2617,128.2276-42.0899,211.626-66.9385,243.3423C731.97908,1569.62155,730.53868,1571.46,729.30328,1573.08105Z"/></g><path fill="#451661" d="M2580.21,2415.97665c-47.8877,46.8992-90.5195,94.3736-158.7879,103.5796-106.5167-1.0052-141.1414-151.1518-156.5583-203.1722-20.4259,3.3542-52.43,61.4753-84.9863,112.2683-25.1821,39.2895-70.5628,61.4039-117.5439,57.3705-112.8807-9.6909-317.5086-34.6677-468.0267-11.8499-32.7909,11.4322-105.813,15.3293-185.1538,13.8811v-.1189c-1.124.0247-2.2333.037-3.3555.0596-1.1221-.0226-2.2314-.0349-3.3554-.0596v.1189c-79.3408,1.4482-152.3629-2.4489-185.1538-13.8811-150.5181-22.8178-355.146,2.159-468.0267,11.8499-46.9811,4.0334-92.3618-18.081-117.5445-57.3705-32.5557-50.793-64.5605-108.9141-84.9857-112.2683-15.4169,52.0204-50.0416,202.167-156.5583,203.1722-68.2684-9.206-110.9002-56.6804-158.7879-103.5796-47.0697-46.0933-79.714-98.228-100.446-153.8737,7.5918,122.5698,88.125,248.9945,118.3753,288.1251,89.0003,115.0886,294.0981,76.7062,362.7757,76.7062,125.4374,0,571.2466,2.9247,790.3519,3.6792v.0229c1.0995-.0036,2.2431-.0078,3.3554-.0114,1.1124.0036,2.256.0078,3.3555.0114v-.0229c219.1053-.7545,664.9138-3.6792,790.3525-3.6792,68.6777,0,273.7748,38.3824,362.7745-76.7062,30.2509-39.1306,110.7841-165.5553,118.3759-288.1251C2659.92458,2317.74865,2627.28028,2369.88335,2580.21,2415.97665Z" opacity=".3"/><path fill="#a3401f" d="M1858.06308,275.75905s177.9219-68.8765,267.6895,91.2495c89.7676,160.1259,89.4235,281.6054,184.787,329.2097,68.1804,34.0348,193.3698,124.6072,208.9737,226.1003,12.0412,78.3201,11.8941,172.4129-97.082,256.3154-143.4414,110.4379-377.1095,53.1938-533.2933-196.5135C1828.65648,885.42245,1629.19208,378.60165,1858.06308,275.75905Z"/><path fill="#fff" d="M2441.05438,1165.32375c42.7064-64.2919,56.4416-138.0887,47.5945-195.6635-15.6096-101.4866-126.3596-206.0449-194.5416-240.089-95.3721-47.5701-116.3544-182.6372-206.1215-342.7638-89.7671-160.1254-276.7829-56.0216-276.7829-56.0216a161.54442,161.54442,0,0,0-28.0235,16.0264c16.8598-30.0149,41.2239-53.869,74.8982-68.9692,0,0,177.9131-68.8775,267.6801,91.2491,89.7671,160.1266,89.4431,281.576,184.7683,329.1925,68.1821,34.0441,193.3836,124.5988,208.9933,226.0854C2530.82088,997.97115,2531.37728,1085.46805,2441.05438,1165.32375Z" opacity=".6"/><path fill="#451661" d="M2524.72148,996.94c-1.2043,61.9749-22.7424,128.628-102.2731,189.817-143.4053,110.4248-377.0866,53.1746-533.2756-196.5342-59.9834-95.881-256.7483-595.3438-36.5461-703.7771-10.7459,189.5387,96.067,448.6493,137.569,514.9791,156.189,249.7076,389.8239,306.9589,533.2751,196.4878Q2524.09673,997.42565,2524.72148,996.94Z" opacity=".3"/><path fill="#451661" d="M2261.20758,1252.00685a323.276,323.276,0,0,1-57.1924-5.1758c-125.3808-22.5391-243.1445-112.8345-331.6015-254.2505-42.7198-68.3081-188.1543-407.1753-126.6163-609.8388,18.2325-60.0562,53.2862-102.1045,104.1797-124.9732q.4761-.2124.9668-.4028c1.9336-.7495,195-73.0518,292.0117,99.9975,34.6241,61.7603,55.7618,116.9605,74.4043,165.6617,28.7549,75.0976,49.5264,129.3579,101.9873,155.5468,68.4229,34.1553,202.3926,128.4278,219.6582,240.7495,13.2227,85.979,11.1377,185.879-104.541,274.939C2385.15288,1232.22905,2325.07968,1252.00685,2261.20758,1252.00685Zm-395.5908-958.0151c-40.3076,18.291-67.1582,51.0766-82.0752,100.2099-53.7256,176.9434,75.6494,502.8443,122.3193,577.461,81.2793,129.9511,192.5,216.0961,305.1319,236.3427,73.6962,13.2471,144.5068-2.7343,199.4091-45,99.1407-76.3305,101.6602-159.3481,89.6192-237.688-13.7451-89.3774-126.1133-175.4223-198.291-211.4526-66.1914-33.042-90.4688-96.4526-121.2061-176.7358-18.1689-47.4439-38.7549-101.2183-71.9775-160.4737C2029.78178,236.15235,1877.08648,289.71435,1865.61678,293.99175Z"/><path fill="#a3401f" d="M983.21868,275.75905s-177.9219-68.8765-267.6894,91.2495c-89.7676,160.1259-89.4235,281.6054-184.7871,329.2097-68.1803,34.0348-193.3697,124.6072-208.9736,226.1003-12.0412,78.3201-11.8942,172.4129,97.082,256.3154,143.4413,110.4379,377.1094,53.1938,533.2933-196.5135C1012.62528,885.42245,1212.08978,378.60165,983.21868,275.75905Z"/><path fill="#fff" d="M400.22738,1165.32375c-42.7063-64.2919-56.4416-138.0887-47.5944-195.6635,15.6096-101.4866,126.3595-206.0449,194.5416-240.089,95.3721-47.5701,116.3544-182.6372,206.1214-342.7638,89.7671-160.1254,276.783-56.0216,276.783-56.0216a161.54347,161.54347,0,0,1,28.0234,16.0264c-16.8597-30.0149-41.2238-53.869-74.8981-68.9692,0,0-177.9131-68.8775-267.6802,91.2491s-89.4431,281.576-184.7683,329.1925c-68.182,34.0441-193.3836,124.5988-208.9932,226.0854C310.46088,997.97115,309.90458,1085.46805,400.22738,1165.32375Z" opacity=".6"/><path fill="#451661" d="M316.56038,996.94c1.2043,61.9749,22.7424,128.628,102.2731,189.817,143.4053,110.4248,377.0866,53.1746,533.2756-196.5342,59.9834-95.881,256.7483-595.3438,36.5461-703.7771,10.7458,189.5387-96.0671,448.6493-137.5691,514.9791-156.189,249.7076-389.8239,306.9589-533.275,196.4878Q317.18513,997.42565,316.56038,996.94Z" opacity=".3"/><path fill="#451661" d="M580.07478,1252.00685c-63.877,0-123.9404-19.7754-173.2569-57.7466-115.6787-89.06-117.7636-188.96-104.541-274.939,17.2657-112.3217,151.2354-206.5942,219.6582-240.7495,52.461-26.1889,73.2325-80.4492,101.9873-155.5468,18.6426-48.7012,39.7803-103.9014,74.4043-165.6617,97.0118-173.0542,290.083-100.7446,292.0118-99.9975q.49065.19035.9668.4028c50.8935,22.8687,85.9472,64.917,104.1796,124.9732,61.5381,202.6635-83.8964,541.5307-126.6162,609.8388-88.457,141.416-206.2207,231.7114-331.6015,254.2505A323.276,323.276,0,0,1,580.07478,1252.00685Zm315.4541-971.5601c-52.5,0-119.0479,18.169-162.793,96.2061-33.2226,59.2578-53.8086,113.0322-71.9775,160.4761-30.7373,80.2832-55.0147,143.6938-121.2061,176.7358-72.1777,36.0303-184.5459,122.0752-198.291,211.4526-12.041,78.3399-9.5215,161.3575,89.6191,237.688,54.8975,42.2632,125.7081,58.2495,199.4092,45,112.6319-20.2466,223.8526-106.3916,305.1319-236.3427,46.6699-74.6167,176.0449-400.5176,122.3193-577.461-14.917-49.1333-41.7725-81.9189-82.0752-100.2124C970.56788,292.08985,937.54548,280.44675,895.52888,280.44675Z"/><path fill="#f9a528" d="M1433.26078,1834.28965c-431.4656,0-895.7715-315.1576-807.5328-729.9947,9.3103-43.8643,24.8266-88.8403,47.1992-134.6497,77.0756-157.857,109.4529-312.9344,165.3602-444.3884,23.4842-55.2135,51.0904-106.2112,87.8678-151.5581,110.8426-136.6424,322.7082-220.8044,480.935-220.8044,175.6893,0,388.3425,59.5662,504.0947,211.5405,26.4946,34.7395,48.079,74.2502,67.2553,117.2347,66.098,147.9904,103.9411,336.8348,217.0528,511.9224a389.49569,389.49569,0,0,1,39.0939,78.094C2364.235,1428.57735,1877.60328,1834.28965,1433.26078,1834.28965Z"/><path fill="#fff" d="M1978.44018,481.66955c-83.5598-105.0058-213.3006-214.968-409.9727-253.9234-6.0681,18.7596-49.0527,33.3045-101.162,33.3045-56.2783,0-101.9028-16.9536-101.9028-37.8901a15.68316,15.68316,0,0,1,2.6869-8.5684c-263.7431,17.7859-434.6156,181.2937-529.8022,310.6647,23.4842-55.2135,51.0904-106.2112,87.8678-151.5581,110.8426-136.6424,322.7082-220.8044,480.935-220.8044,175.6893,0,388.3425,59.5662,504.0947,211.5405C1937.67948,399.17435,1959.26388,438.68505,1978.44018,481.66955Z" opacity=".6"/><ellipse cx="1591.21" cy="306.327" fill="#fff" opacity=".6" rx="48.635" ry="24.897"/><ellipse cx="1033.061" cy="870.644" fill="#e87325" rx="213.296" ry="240.421"/><path fill="#fff" d="M1433.26078,1834.28965c-383.1084,0-792.1086-248.4581-817.214-594.6031a482.7024,482.7024,0,0,1,9.6812-135.3916c21.6308,87.6835,76.5662,187.2703,213.9492,197.414,250.1249,18.435,313.7678-468.4279,598.6322-468.1508,284.8645.2318,349.3872,485.0569,573.2493,468.1508,136.8278-10.3292,196.9504-135.1134,223.0282-230.023a349.95135,349.95135,0,0,1,16.3967,62.2541C2308.14218,1474.10975,1851.94218,1834.28965,1433.26078,1834.28965Z"/><path fill="#451661" d="M1407.09138,1854.01365c-301.7871,0-596.626-147.4023-733.6621-366.7944-70.4492-112.7783-130.791-295.6201-18.2276-526.2109,44.3799-90.918,73.5889-180.4004,101.8311-266.9385,40.2344-123.2691,78.2373-239.7022,153.7891-332.8125,120.2099-148.147,345.4101-228.086,496.2695-228.086,170.5029,0,396.5918,57.6099,519.7949,219.2945,60.0244,78.7695,95.4981,180.9253,133.0518,289.0771,39.082,112.5562,79.497,228.9453,152.0996,341.3452,81.4746,126.1255,82.4951,270.0049,2.9492,416.0865C2076.04648,1654.13575,1721.17338,1854.01365,1407.09138,1854.01365Zm0-1681.394c-141.7481,0-353.1152,74.8242-465.6348,213.4912-70.9521,87.4414-107.8515,200.5005-146.9238,320.1977C765.87068,794.126,736.232,884.93405,690.651,978.313c-82.8223,169.6631-77.2071,338.4131,16.2353,488.0079,130.1074,208.2959,411.499,348.2446,700.2051,348.2446,300.9424,0,640.5957-190.835,773.2519-434.4556,50.3565-92.4756,90.9815-232.7441-1.4404-375.8154v-.0025c-75.1807-116.3842-118.2373-240.3955-156.2305-349.8095-36.4892-105.0904-70.957-204.3531-127.163-278.1079C1781.03668,226.14505,1568.151,172.61965,1407.09138,172.61965Z"/><path fill="#451661" d="M675.14308,970.74215l-4.4336-2.163c44.9073-91.9947,74.3018-182.0581,102.7295-269.1553,39.7266-121.7066,77.2461-236.6626,150.7862-327.2925,116.8457-144.0015,335.9912-221.7017,482.8662-221.7017v4.9317c-145.7373,0-363.1543,77.0605-479.0381,219.8755-72.9639,89.9218-110.3467,204.458-149.9268,325.7177C749.65,788.21045,720.20168,878.44,675.14308,970.74215Z"/><path fill="#451661" d="M1433.25838,1854.01365c-277.9932,0-558.4522-124.5434-714.5069-317.2851-106.2988-131.2867-145.1367-282.2388-112.3144-436.5381,9.8047-46.1841,26.2109-93.02,48.7646-139.1992,44.3848-90.9082,73.5938-180.3858,101.836-266.919,40.2392-123.2617,78.2422-239.6875,153.7988-332.8027,120.1855-148.1543,345.3857-228.0982,496.2549-228.0982,170.5273,0,396.626,57.6148,519.7803,219.314,60.0195,78.7402,95.4882,180.8814,133.042,289.0186,39.0917,112.5659,79.5166,228.9648,152.1484,341.3842a410.98779,410.98779,0,0,1,41.0596,82.0557c46.2304,127.2559,19.6679,271.5747-74.7852,406.3818-74.4482,106.2549-188.4668,202.9688-321.0547,272.3291C1719.26908,1815.85205,1572.648,1854.01365,1433.25838,1854.01365Zm-26.167-1681.394c-141.7627,0-353.125,74.8291-465.6201,213.5058-70.9619,87.4439-107.8614,200.4956-146.9336,320.188-28.6621,87.8125-58.3008,178.6158-103.8867,271.9849-21.1426,43.2861-36.4942,87.0532-45.6299,130.0928-30.2588,142.2656,5.8349,281.7944,104.3847,403.5132,146.5772,181.0302,421.3916,302.6611,683.8526,302.6611,264.4629,0,564.2285-153.8721,712.7734-365.8765,61.4453-87.6977,123.4717-223.1225,70.0147-370.2685a371.20183,371.20183,0,0,0-37.1241-74.1333c-75.2002-116.3941-118.2714-240.4175-156.2695-349.8413-36.4892-105.0757-70.957-204.3238-127.1582-278.0542C1781.066,226.15,1568.17048,172.61965,1407.09138,172.61965Z"/><ellipse cx="1435.345" cy="1063.654" fill="#451661" rx="62.44" ry="118.85" transform="rotate(-88.217 1435.345 1063.654)"/><path fill="#451661" d="M1440.90968,1145.90575q-4.02825,0-8.125-.1269c-34.8632-1.0865-67.7246-9.4117-92.5244-23.4424-28.7597-16.272-44.1797-38.6426-43.4179-62.9956.7519-24.3482,17.5341-45.7178,47.2509-60.1709,25.6299-12.461,58.9942-18.7158,93.8086-17.6416,34.8682,1.0864,67.7295,9.4116,92.5293,23.4424,28.7598,16.2719,44.1797,38.6425,43.418,62.9956C1572.44288,1113.16165,1515.86578,1145.90575,1440.90968,1145.90575Zm-10.5908-125.0488c-25.9179,0-50.7666,4.9341-68.9746,13.7891-15.4297,7.5048-24.8047,17.1948-25.0781,25.9228-.2686,8.7305,8.4814,18.9844,23.418,27.4341,19.0576,10.7812,46.1523,17.4707,74.331,18.3472,60.4492,1.9335,99.8682-22.2022,100.4102-39.6143.2685-8.728-8.4864-18.9819-23.418-27.4316-19.0576-10.7813-46.1523-17.4707-74.3359-18.3472C1434.55228,1020.89115,1432.42828,1020.857,1430.31888,1020.857Z"/><ellipse cx="1470.72" cy="1031.632" fill="#fff" rx="17.786" ry="49.634" transform="rotate(-87.464 1470.72 1031.632)"/><path fill="#451661" d="M1248.39508,1273.15185a139.6154,139.6154,0,0,1-30.0342-3.2226c-103.5986-22.7051-116.3183-106.3526-108.5693-147.4122a19.7235,19.7235,0,0,1,38.7793,7.2266c-1.4893,8.418-11.7481,81.9312,78.2373,101.6553,98.999,21.6846,205.2148-115.7837,206.2793-117.1753a19.73441,19.73441,0,0,1,15.6836-7.7686c.0293,0,.0586,0,.0879.0025a19.72157,19.72157,0,0,1,15.7031,7.893c1.0937,1.4478,110.9277,145.6543,206.5674,100.1709,57.1972-27.2143,37.3535-78.8452,36.4795-81.0278a19.72376,19.72376,0,1,1,36.6308-14.6387c12.1436,30.3907,16.0303,96.941-56.167,131.2867a130.2952,130.2952,0,0,1-56.5869,12.8833c-79.7851.0097-151.8994-70.8057-182.7783-105.9473C1415.76328,1194.39205,1335.86088,1273.15185,1248.39508,1273.15185Z"/><path fill="#451661" d="M1443.34628,1560.99125c-116.3965,0-177.8565-275.4468-184.4776-306.8555a19.72191,19.72191,0,0,1,38.5938-8.1445c22.5097,106.5356,82.0166,275.5517,145.8838,275.5517,63.7939,0,123.3203-174.5508,145.8545-284.5776a19.72165,19.72165,0,0,1,38.6425,7.9077c-.6396,3.1274-15.9961,77.4951-44.5459,153.1812C1542.51128,1506.17185,1495.42628,1560.99125,1443.34628,1560.99125Z"/><path fill="#451661" d="M1608.519,1248.44155s-61.4196,300.3356-165.1746,300.3356c-102.968,0-164.2485-286.7644-165.1753-291.1645v-.0463c91.6194-20.0567,170.5943-123.9045,170.5943-123.9045S1522.64258,1232.32245,1608.519,1248.44155Z"/><path fill="#451661" d="M1443.34628,1568.501c-116.4112,0-177.8516-275.415-184.4727-306.8188a19.77385,19.77385,0,0,1,15.0781-23.3838c83.5596-18.2935,158.3643-115.5957,159.1114-116.5747a19.71532,19.71532,0,0,1,15.6982-7.7857h.0732a19.72646,19.72646,0,0,1,15.7129,7.9004c.6885.9156,70.4346,92.732,147.6075,107.2193a19.71339,19.71339,0,0,1,15.6836,23.3374c-.6397,3.1274-15.9961,77.4927-44.5459,153.1762C1542.51128,1513.68405,1495.42628,1568.501,1443.34628,1568.501Zm-141.8604-296.9458c24.9707,106.4991,81.416,257.4976,141.8604,257.4976,60.3466,0,116.8652-156.1817,141.875-266.1939-60.4541-19.1259-111.7774-70.2148-136.5235-98.3203C1422.58448,1194.09185,1366.88628,1249.795,1301.48588,1271.55515Z"/><path fill="#ed2e7a" d="M1553.28808,1370.943c-26.2663,68.5246-67.2719,147.4753-116.2301,145.4127-46.2281-1.9774-79.3759-73.044-100.1579-138.5318C1384.56488,1349.48255,1469.01068,1317.45365,1553.28808,1370.943Z"/><path fill="#451661" d="M1433.26078,1834.28965c-383.1084,0-792.1086-248.4581-817.214-594.6031,76.9371,204.5474,284.5568,430.7494,817.0911,430.7494,527.461-20.2907,763.6986-329.2165,817.8457-536.4959C2308.14218,1474.10975,1851.94218,1834.28965,1433.26078,1834.28965Z" opacity=".3"/><path fill="#451661" d="M914.91218 908.46105s124.8866-94.6248 219.5317 50.3339c0 0 19.0314-79.3502-62.4807-126.8129a96.68508 96.68508 0 00-75.9354-9.6567C964.95878 831.34435 925.94038 853.60765 914.91218 908.46105zM1959.83288 908.46105s-124.8866-94.6248-219.5318 50.3339c0 0-19.0314-79.3502 62.4808-126.8129a96.68508 96.68508 0 0175.9354-9.6567C1909.78628 831.34435 1948.80468 853.60765 1959.83288 908.46105z"/><path fill="#ec1c24" d="M2180.19738,1799.05155a458.02815,458.02815,0,0,1-29.9782,97.3028c-66.9012,156.5402-209.8068,282.085-289.5797,340.8563-124.402,91.629-303.5106,237.4984-420.206,296.4392-116.7802-58.9408-295.8887-204.8102-420.2907-296.4392-61.5655-45.3486-160.7321-130.5414-233.5609-238.9803a647.69217,647.69217,0,0,1-46.2799-80.3239c-67.7903-141.0847-76.8516-309.7343,80.6201-478.0453,240.3774-257.0606,502.9003-36.5415,619.5114,90.2738,116.4416-126.8153,378.9645-347.3344,619.3843-90.2738C2175.11658,1563.07745,2201.15718,1686.46325,2180.19738,1799.05155Z"/><path fill="#451661" d="M2150.21918,1896.35435c-66.9012,156.5402-209.8068,282.085-289.5797,340.8563-124.402,91.629-303.5106,237.4984-420.206,296.4392-116.7802-58.9408-295.8887-204.8102-420.2907-296.4392-61.5655-45.3486-160.7321-130.5414-233.5609-238.9803C1035.55548,2167.981,1570.17068,2408.52835,2150.21918,1896.35435Z" opacity=".3"/><path fill="#fff" d="M2180.19738,1799.05155c-5.6737-90.8248-38.701-191.8955-120.6758-296.143-41.7919-53.2242-85.4896-87.3943-129.5253-107.1684a19.30683,19.30683,0,0,1,.3391,3.8109c0,26.2945-40.1834,47.6352-89.7662,47.6352-49.5409,0-89.7238-21.3407-89.7238-47.6352a28.75918,28.75918,0,0,1,5.8862-16.9793c-176.1025,43.7819-321.3795,233.6875-321.3795,233.6875-152.6864-195.7489-377.9907-329.2546-584.0709-140.1533-120.4639,110.556-126.6457,301.9015-110.9792,441.8005-67.7903-141.0847-76.8516-309.7343,80.6201-478.0453,240.3774-257.0606,502.9003-36.5415,619.5114,90.2738,116.4416-126.8153,378.9645-347.3344,619.3843-90.2738C2175.11658,1563.07745,2201.15718,1686.46325,2180.19738,1799.05155Z" opacity=".6"/><path fill="#451661" d="M1441.68608,2553.37895a19.69994,19.69994,0,0,1-8.8867-2.1167c-90.083-45.459-214.834-140.4102-324.9024-224.1846-35.0537-26.6821-68.1689-51.8848-98.1982-74.0039-72.3779-53.3203-310.2588-246.0889-332.5439-488.0176-11.0743-120.2417,32.8808-234.1894,130.6445-338.6841,77.7295-83.1225,164.7266-125.2685,258.5742-125.2685.4443,0,.874,0,1.3184.0024,155.8496.6543,296.2793,119.292,373.9843,200.2295,77.5782-80.9106,217.8272-199.5068,373.7354-200.2295.4834-.0024.9668-.0024,1.4551-.0024,93.8574,0,180.8594,42.1411,258.623,125.271,97.7686,104.4922,141.7237,218.4423,130.6494,338.684-22.29,241.9336-260.1709,434.6973-332.5439,488.0127l-.0049.0025c-30.0537,22.1362-63.1982,47.3633-98.2812,74.0698-110.0293,83.7476-234.7315,178.6694-324.7315,224.1187A19.73491,19.73491,0,0,1,1441.68608,2553.37895Zm-375.293-1212.8296c-82.5048,0-159.8046,37.9345-229.7851,112.771-89.7412,95.9155-130.1709,199.58-120.1709,308.1176,20.7764,225.564,247.6221,409.021,316.6553,459.8755,30.2832,22.3023,63.5156,47.5952,98.6963,74.375,105.0585,79.9634,223.6572,170.232,309.8925,215.7666,86.1621-45.5249,204.7217-135.7666,309.7364-215.7007,35.2099-26.8041,68.4716-52.1215,98.7841-74.4433l-.0048.0024c69.0332-50.8545,295.8789-234.3066,316.6601-459.873,10-108.5376-30.4346-212.2046-120.1758-308.1152-70-74.834-147.3291-112.7759-229.8388-112.7759-.42,0-.8301.0024-1.25.0024-151.2061.7007-290.0635,127.4487-359.3799,202.937a19.71388,19.71388,0,0,1-14.5215,6.3843h-.0049a19.72983,19.72983,0,0,1-14.5215-6.3745c-69.4384-75.5225-208.4961-202.312-359.6386-202.9468C1067.15,1340.55175,1066.76908,1340.54935,1066.39308,1340.54935Zm795.503,896.643h0Z"/><path fill="#f9a528" d="M2426.61058,1788.41245c0,125.4497-115.8297,209.3271-294.9003,248.9785-179.0706,39.6513-353.5717,20.0614-353.5717-105.3882,0-125.4497,168.3251-237.8678,347.3957-277.5191C2304.60488,1614.83225,2426.61058,1662.96285,2426.61058,1788.41245Z"/><path fill="#fff" d="M2412.15758,1754.98555c-45.7724-58.0089-144.8532-74.7339-273.2781-46.2799-179.0662,39.6319-347.3772,152.0512-347.3772,277.5112a116.67439,116.67439,0,0,0,3.3452,28.4126c-15.7089-18.0379-24.5164-40.861-24.5164-69.0607,0-125.4176,168.311-237.838,347.3772-277.5123C2272.34288,1633.84455,2384.42308,1665.05035,2412.15758,1754.98555Z" opacity=".6"/><path fill="#451661" d="M2426.59018,1783.06285c0,125.4611-115.8064,209.3406-294.872,248.9735-179.0662,39.6743-353.5591,20.0703-353.5591-105.3908a140.35409,140.35409,0,0,1,1.778-22.3145c49.2867,69.6954,190.8375,76.2587,335.3517,44.2486,173.0962-38.3201,287.0817-117.9664,294.4916-236.5675C2420.74688,1731.91285,2426.59018,1755.66745,2426.59018,1783.06285Z" opacity=".3"/><path fill="#451661" d="M1977.98008,2075.43215c-75.1856,0-136.0889-15.3931-173.5206-45.4395-30.122-24.1821-46.0449-58.0688-46.0449-97.9907,0-142.085,182.5391-256.8481,362.8565-296.7773,117.5-26.0132,213.2959-15.3858,269.7509,29.934,36.1866,29.0503,55.3125,71.6724,55.3125,123.2544,0,128.6573-110.2197,223.9185-310.3613,268.2349C2079.14218,2069.23345,2025.68508,2075.43215,1977.98008,2075.43215Zm261.2841-414.8853c-32.8613,0-69.624,4.3701-109.4677,13.1934-160.9131,35.6323-331.9385,138.2568-331.9385,258.2617,0,28.3325,10.2392,50.3247,31.2988,67.2315,51.1572,41.0693,165.4541,48.3178,298.291,18.8989,104.3604-23.1079,279.4434-83.6792,279.4434-229.7193,0-39.7656-13.6475-70.8862-40.5664-92.4926C2337.09628,1672.45605,2293.49278,1660.54685,2239.26418,1660.54685Z"/><path fill="#f9a528" d="M455.42568,1788.41245c0,125.4497,115.8297,209.3271,294.9004,248.9785,179.0706,39.6513,353.5716,20.0614,353.5716-105.3882,0-125.4497-168.3251-237.8678-347.3957-277.5191C577.43138,1614.83225,455.42568,1662.96285,455.42568,1788.41245Z"/><path fill="#fff" d="M469.87878,1754.98555c45.7723-58.0089,144.8531-74.7339,273.278-46.2799,179.0662,39.6319,347.3772,152.0512,347.3772,277.5112a116.67439,116.67439,0,0,1-3.3452,28.4126c15.7089-18.0379,24.5164-40.861,24.5164-69.0607,0-125.4176-168.311-237.838-347.3772-277.5123C609.69338,1633.84455,497.61318,1665.05035,469.87878,1754.98555Z" opacity=".6"/><path fill="#451661" d="M455.44608,1783.06285c0,125.4611,115.8064,209.3406,294.8721,248.9735,179.0661,39.6743,353.559,20.0703,353.559-105.3908a140.35409,140.35409,0,0,0-1.778-22.3145c-49.2867,69.6954-190.8375,76.2587-335.3517,44.2486-173.0962-38.3201-287.0817-117.9664-294.4916-236.5675C461.28938,1731.91285,455.44608,1755.66745,455.44608,1783.06285Z" opacity=".3"/><path fill="#451661" d="M904.05428,2075.43215c-47.71,0-101.1524-6.1987-157.9932-18.7842-200.1367-44.3164-310.3564-139.5776-310.3564-268.2349,0-51.582,19.1259-94.2041,55.3125-123.2544,56.4599-45.3198,152.2656-55.9448,269.7461-29.934,180.3173,39.9292,362.8564,154.6923,362.8564,296.7773,0,39.9219-15.9228,73.8086-46.0449,97.9907C1040.148,2060.03665,979.23008,2075.43215,904.05428,2075.43215ZM642.775,1660.54685c-54.2383,0-97.8321,11.9068-127.0606,35.3711-26.9189,21.6089-40.5664,52.7295-40.5664,92.4951,0,146.0376,175.0782,206.6114,279.4385,229.7193,132.8369,29.4189,247.1387,22.1728,298.291-18.8989,21.0596-16.9068,31.2988-38.899,31.2988-67.2315,0-120.0049-171.0253-222.6294-331.9384-258.2617C712.40388,1664.91945,675.63138,1660.54685,642.775,1660.54685Z"/></svg>