<svg xmlns="http://www.w3.org/2000/svg" enable-background="new 0 0 512 512" viewBox="0 0 512 512"><radialGradient id="a" cx="256" cy="77" r="255.905" gradientUnits="userSpaceOnUse"><stop offset=".894" stop-color="#e36415"/><stop offset="1" stop-color="#b24e10"/></radialGradient><path fill="url(#a)" d="M436,300c0,106-119,137-180,137S76,406,76,300c0-80,40-174.6,70-193.8C176,87,207,75,256,75s80,12,110,31.2C396,125.5,436,220,436,300z"/><path fill="#ffc96f" d="M358,286c0,0-74-36.2-45.1-124.1L277,177.4L256,146l0,0l-21,31.6l-35.9-15.7C228,249.8,154,286,154,286"/><radialGradient id="b" cx="255.333" cy="257.833" r="152.19" gradientUnits="userSpaceOnUse"><stop offset=".663" stop-color="#ffc96f"/><stop offset="1" stop-color="#ffb234"/></radialGradient><path fill="url(#b)" d="M401,344.8c0-50-86-88.8-145-88.8s-145,38.8-145,88.8c0,21.4,8.6,41.4,21.9,57.3c39.1,25.7,89.8,35,123.1,35s84-9.3,123.1-35C392.4,386.2,401,366.2,401,344.8z"/><radialGradient id="c" cx="115.5" cy="135.417" r="120.439" gradientUnits="userSpaceOnUse"><stop offset=".488" stop-color="#e36415"/><stop offset="1" stop-color="#b24e10"/></radialGradient><path fill="url(#c)" d="M146,106.2c0,0-11.8-30.7-39.6-30.7c-27.8,0-33.8,38-60.6,57c-26.8,19-40.8,47-40.8,71c0,12.6,21.8,36.7,34,61.5c11,22.3,12.9,46.3,24.6,46.3c3.5,0,10.1-3.1,12.4-11.3C117,153,146,106.2,146,106.2z"/><path fill="#b24e10" d="M80.8,301.4l-9.6-2.7c40.7-146,69.4-193.1,70.6-195.1l8.5,5.3C150,109.3,121,157.1,80.8,301.4z"/><radialGradient id="d" cx="-1184.5" cy="135.417" r="120.439" gradientTransform="matrix(-1 0 0 1 -788 0)" gradientUnits="userSpaceOnUse"><stop offset=".488" stop-color="#e36415"/><stop offset="1" stop-color="#b24e10"/></radialGradient><path fill="url(#d)" d="M366,106.2c0,0,11.8-30.7,39.6-30.7c27.8,0,33.8,38,60.6,57c26.8,19,40.8,47,40.8,71c0,12.6-21.8,36.7-34,61.5c-11,22.3-12.9,46.3-24.6,46.3c-3.5,0-10.1-3.1-12.4-11.3C395,153,366,106.2,366,106.2z"/><path fill="#b24e10" d="M431.2,301.4l9.6-2.7c-40.7-146-69.4-193.1-70.6-195.1l-8.5,5.3C362,109.3,391,157.1,431.2,301.4z"/><rect width="10" height="44" x="251" y="305" fill="#b24e10"/><path fill="#b24e10" d="M298,288.7c0,9.6-28,23.3-42,23.3s-42-13.7-42-23.3c0-9.6,5.4-19.7,9.3-23.3c3.9-3.6,14.5-9.5,32.7-9.5s28.9,5.9,32.7,9.5C292.6,269,298,279.1,298,288.7z"/><path fill="#9cd3fc" d="M146 233v177c-17 0-17.5 9-17.5 13s-1.5 14 30.7 14 30.7-10.5 30.7-16-10.5-10.5-19-10.5V232L146 233zM366 233v177c17 0 17.5 9 17.5 13s1.5 14-30.7 14S322 426.5 322 421s10.5-10.5 19-10.5V232L366 233z"/><path fill="#b24e10" d="M191.8 220.7c-22-8.6-39.1-4.4-49.5.7-11.4 5.5-17.5 13.1-17.7 13.4-1.4 1.8-1.4 4.2-.1 6 1 1.3 2.5 2.1 4 2.1.6 0 1.2-.1 1.7-.3 37.8-14.1 56-1.3 56.7-.8 1.5 1.1 3.5 1.3 5.2.5 1.7-.8 2.8-2.6 2.8-4.5v-12.5C195 223.3 193.7 221.5 191.8 220.7zM387.4 234.8c-.3-.3-6.5-7.9-17.8-13.4-10.5-5.1-27.5-9.3-49.4-.6-1.9.8-3.2 2.6-3.2 4.7v12.5c0 1.9 1.1 3.6 2.8 4.4s3.7.7 5.2-.4c.8-.6 18.9-13.3 56.8.7.6.2 1.2.3 1.7.3 1.6 0 3.1-.7 4.1-2.1C388.9 239 388.8 236.6 387.4 234.8z"/><path fill="#b4271e" d="M324,383.2c0,17.8-21.8,15.8-26.2,15.8c-8.7,0-22.9-17.6-41.8-17.6S222.9,399,214.2,399c-4.3,0-26.2,2-26.2-15.8c0-17.8,37.4-38.2,68-38.2S324,365.4,324,383.2z"/></svg>