<svg xmlns="http://www.w3.org/2000/svg" enable-background="new 0 0 512 512" viewBox="0 0 512 512"><linearGradient id="a" x1="-2212.95" x2="-2169.279" y1="183.301" y2="156.815" gradientTransform="matrix(-1 0 0 1 -2088 0)" gradientUnits="userSpaceOnUse"><stop offset=".663" stop-color="#ffc96f"/><stop offset="1" stop-color="#ffb234"/></linearGradient><path fill="url(#a)" d="M82.4,260c-25.4,0-24.6-56.9-24.6-56.9C53,140,77.5,70,105.5,70s40.5,56.2,40.5,56.2S146.4,260,82.4,260z"/><linearGradient id="b" x1="387.05" x2="430.721" y1="183.301" y2="156.815" gradientUnits="userSpaceOnUse"><stop offset=".663" stop-color="#ffc96f"/><stop offset="1" stop-color="#ffb234"/></linearGradient><path fill="url(#b)" d="M429.6,260c25.4,0,24.6-56.9,24.6-56.9C459,140,434.5,70,406.5,70S366,126.2,366,126.2S365.6,260,429.6,260z"/><radialGradient id="c" cx="256" cy="97" r="255.905" gradientUnits="userSpaceOnUse"><stop offset=".894" stop-color="#e36415"/><stop offset="1" stop-color="#b24e10"/></radialGradient><path fill="url(#c)" d="M436,320c0,106-119,137-180,137S76,426,76,320c0-80,40-174.6,70-193.8C176,107,207,95,256,95s80,12,110,31.2C396,145.5,436,240,436,320z"/><path fill="#ffc96f" d="M358,306c0,0-74-36.2-45.1-124.1L277,197.4L256,166l0,0l-21,31.6l-35.9-15.7C228,269.8,154,306,154,306"/><radialGradient id="d" cx="255.333" cy="277.833" r="152.19" gradientUnits="userSpaceOnUse"><stop offset=".663" stop-color="#ffc96f"/><stop offset="1" stop-color="#ffb234"/></radialGradient><path fill="url(#d)" d="M401,364.8c0-50-86-88.8-145-88.8s-145,38.8-145,88.8c0,21.4,8.6,41.4,21.9,57.3c39.1,25.7,89.8,35,123.1,35s84-9.3,123.1-35C392.4,406.2,401,386.2,401,364.8z"/><path fill="#b24e10" d="M146 126.2c0 0-15-71.2-39.7-71.2S73 90.3 49.7 111.7 5 137 5 159s22 61 39.5 61S93.3 84.3 109.3 84.3 146 126.2 146 126.2zM366 126.2c0 0 15-71.2 39.7-71.2 24.7 0 33.3 35.3 56.7 56.7C485.7 133 507 137 507 159s-22 61-39.5 61S418.7 84.3 402.7 84.3 366 126.2 366 126.2z"/><rect width="10" height="42" x="251" y="345" fill="#b24e10"/><path fill="#b24e10" d="M387.9 247.5c-.6-1.1-14.7-26-36.4-28.6-11.5-1.4-22.7 3.7-33.2 15.1-.9.9-1.3 2.1-1.3 3.4v12.5c0 1.9 1.1 3.6 2.8 4.4s3.7.7 5.2-.4c.8-.6 18.9-13.3 56.8.7.6.2 1.2.3 1.7.3 1.4 0 2.8-.6 3.8-1.7C388.6 251.6 388.9 249.3 387.9 247.5zM160.5 218.9c-21.7 2.6-35.8 27.5-36.4 28.6-1 1.8-.8 4.1.6 5.7 1 1.1 2.4 1.7 3.8 1.7.6 0 1.2-.1 1.7-.3 37.8-14.1 56-1.3 56.7-.8 1.5 1.1 3.5 1.3 5.2.5 1.7-.8 2.8-2.6 2.8-4.5v-12.5c0-1.3-.5-2.5-1.3-3.4C183.2 222.6 172 217.6 160.5 218.9z"/><path fill="#e25d56" d="M335.8,443.1c-43.3,10-37.8-49.2-37.8-49.2c2,0.1,4.1,0.1,6.3,0.1c15.4,0,27.6-6.3,35.9-12.5C340.2,381.5,379,433,335.8,443.1z"/><rect width="29.7" height="10" x="310.3" y="400.7" fill="#db3529" transform="rotate(74.193 325.166 405.69)"/><path fill="#b24e10" d="M304.2 399c-26.1 0-42.9-4.9-48.2-6.7-5.4 1.8-22.2 6.7-48.2 6.7-33 0-52-26-52.8-27.1l8.1-5.8c.2.2 16.9 22.9 44.7 22.9 29.5 0 46.2-6.6 46.4-6.6 1.2-.5 2.5-.5 3.7 0 .2.1 17.1 6.6 46.4 6.6 27.8 0 44.5-22.7 44.7-22.9l8.1 5.8C356.3 373 337.3 399 304.2 399zM298 328.7c0 9.6-28 23.3-42 23.3s-42-13.7-42-23.3c0-9.6 5.4-19.7 9.3-23.3 3.9-3.6 14.5-9.5 32.7-9.5s28.9 5.9 32.7 9.5C292.6 309 298 319.1 298 328.7z"/></svg>