<svg xmlns="http://www.w3.org/2000/svg" data-name="Layer 1" viewBox="0 0 3000 3000"><path fill="#380d36" d="M2373.14927 304.3054h-58.9209c-7.539 0-16.4746-4.1894-16.4746-15.9179 0-11.7261 8.9356-15.9156 16.4746-15.9156h96.8946c10.8935 0 16.7578 7.2608 16.7578 17.8711 0 4.4678-2.5147 9.4947-6.4258 13.6817l-75.3906 82.6538h67.0166c7.539 0 16.4746 4.1894 16.4746 15.918 0 11.726-8.9356 15.9155-16.4746 15.9155H2309.204c-12.0068 0-18.1494-7.8174-18.1494-15.9155 0-5.8643 1.6748-10.8912 5.3027-14.7998zM2744.95107 147.555h-76.4209c-9.7754 0-21.3672-5.4322-21.3672-20.6421 0-15.2124 11.5918-20.6446 21.3672-20.6446H2794.204c14.126 0 21.7285 9.4165 21.7285 23.1787 0 5.7959-3.2568 12.3145-8.33 17.7466l-97.7832 107.2022h86.9189c9.7803 0 21.3672 5.4321 21.3672 20.6421 0 15.2124-11.5869 20.6445-21.3672 20.6445h-134.7266c-15.5712 0-23.54-10.1416-23.54-20.6445 0-7.605 2.1729-14.1236 6.8799-19.1944zM2582.68057 491.7102h-52.0752c-6.665 0-14.5606-3.7036-14.5606-14.0698s7.8956-14.0674 14.5606-14.0674h85.6445c9.624 0 14.8047 6.416 14.8047 15.7959 0 3.9478-2.2217 8.3911-5.6738 12.0947l-66.6406 73.0542h59.2334c6.665 0 14.5654 3.7037 14.5654 14.0699s-7.9004 14.0674-14.5654 14.0674H2526.162c-10.6152 0-16.0449-6.9117-16.0449-14.0674 0-5.1831 1.4844-9.6265 4.6924-13.0811z"/><path fill="#fca030" d="M317.59667,2554.5539c-2.9383-68.6446,14.937-125.4949,31.0199-179.033,0,0-25.5923,27.9296-87.9372-37.6582C190.24507,2263.6631,159.47067,2469.4218,317.59667,2554.5539Z"/><path fill="#380d36" d="M315.48327,2570.614a19.05625,19.05625,0,0,1-9.0527-2.29c-92.2217-49.6338-128.9819-141.1255-124.1113-205.1294,2.4194-31.8042,15.1782-54.0894,35.0048-61.145,10.2198-3.6255,30.9522-5.9155,55.1441,19.5508,32.417,34.1333,50.7348,37.7636,56.8603,37.6245a9.25322,9.25322,0,0,0,4.1602-.8032c.7935-.5982-1.0938,1.1035-1.0962,1.1035l28.2422,25.8349c-1.8262,1.9971-11.8994,11.9629-30.9473,12.1411-24.9145.0489-53.5302-16.4331-84.9731-49.5385-8.8233-9.292-13.9234-10.0904-14.5557-9.8511-2.0703.7373-8.208,8.7378-9.6728,27.9883-2.8443,37.3779,15.249,120.7055,104.0844,168.518a19.14178,19.14178,0,0,1-9.0869,35.9961Z"/><path fill="#fca030" d="M523.19117 2241.9465l-.0479.0478zM909.75627 2862.2726a393.71713 393.71713 0 01-72.2966 14.2105zM822.00517 2877.775c-4.8804.2392-9.8565.3828-14.8326.3828zM637.12487 2645.9569c0-152.3444 81.0047-225.7414 187.6075-225.7414 103.5406 0 171.4832 99.4257 175.2631 239.617zM523.15367 2241.9859l.0478-.0479c53.4928-55.2152 123.4928-88.7559 200.2391-88.7559 160.2392 0 291.5309 146.22 302.9663 331.6745zM2256.93247 2480.8374q0-15.4305-1.3875-30.3827z"/><path fill="#fca030" d="M2381.47727,2646.0048c-20.1912,113.5884-91.4347,205.6458-159.1375,205.6458h-201.5315c16.6506-35.5502,25.5985-73.3015,25.5985-112.4402,0-85.3589-42.6323-164.2583-114.7367-227.9425-23.0625,161.3874-52.7273,326.8419-52.7273,326.8419h-370.8132c-14.354-66.2199,43.0622-103.6841,43.0622-103.6841V2360.7895c-28.8518-2.8707-58.4208-4.354-88.5167-4.354-2.6797,0-5.4073,0-8.087.0958-33.9227,144.8323-25.4058,389.0428-25.4058,389.0428,57.4162,9.5694,49.425,92.5357,49.425,92.5357H1113.393s-34.8805-195.3588-65.9331-367.9422c-7.2249,4.7847-14.2104,9.6649-21.0533,14.6888.5747,8.756.8621,17.56.8621,26.4594a411.18147,411.18147,0,0,1-27.2737,148.5166v.0479q.1437,6.10065.1437,12.3445c0,96.555-37.4166,155.2153-93.3972,184.0192-20.8127,10.7655-44.2583,17.3681-69.2821,20.2391a6.54513,6.54513,0,0,0-.9088.0958c-2.0571.2391-4.1154.4304-6.2204.5741a9.337,9.337,0,0,1-1.1483.0955c-2.3444.2395-4.7367.3829-7.177.5265-8.0858.5263-16.2196.8134-24.4012.8134-256.3159,0-464.1145-42.2968-464.1145-348.5646,0-271.1002,198.707-588.7077,409.1864-732.8224,130.6689-147.177,312.5349-238.8514,552.5355-238.8514,422.8221,0,765.5498,293.4924,765.5498,655.5498,0,6.1722-.0958,12.3443-.2874,18.4689,3.2533-.2392,6.5544-.335,9.8567-.335,95.3585,0,173.9706,95.3109,185.215,218.421,13.1579-6.6029,26.6032-10.1438,39.9036-10.1438C2363.15277,2440.3109,2401.66967,2532.4161,2381.47727,2646.0048Z"/><path fill="#fca030" d="M2209.89907,2646.0048c29.2344-43.9713,47.0334-101.7703,47.0334-165.1674q0-15.4305-1.3875-30.3827Z"/><path fill="#380d36" d="M2038.68417 2103.4593c-697.4154 309.2818-1197.7976-99.6172-1357.0321-258.9951 16.9859-14.1149 34.2106-27.1294 51.4833-38.9474 130.67-147.177 312.536-238.8515 552.5354-238.8515C1661.125 1566.6653 1973.42147 1798.1005 2038.68417 2103.4593zM807.17267 2166.9795s277.9795 189.8149-95.0984 283.4752c0 0 226.8547-125.7305 285.6122 175.2088C997.68647 2625.6635 1121.28847 2280.5672 807.17267 2166.9795z" opacity=".3"/><path fill="#fff" d="M523.19127 2249.5696s216.3236-113.3012 374.5004 19.5798C897.69167 2269.1494 789.77847 2029.4741 523.19127 2249.5696zM2058.02077 2237.6079s175.3951 59.8086 153.011 269.6649C2211.03177 2507.2728 2279.295 2225.6462 2058.02077 2237.6079zM2256.23877 2459.5837s155.8663-73.2678 106.4246 223.1914C2362.66337 2682.7751 2371.50477 2439.1353 2256.23877 2459.5837z" opacity=".6"/><ellipse cx="828.374" cy="2651.127" fill="#fff" rx="157.895" ry="200.523"/><ellipse cx="840.8" cy="2719.665" fill="#ff8c7c" rx="92.569" ry="88.517"/><circle cx="738.895" cy="2603.636" r="35.885" fill="#ff8c7c" transform="rotate(-76.717 738.895 2603.636)"/><circle cx="828.374" cy="2551.471" r="35.885" fill="#ff8c7c" transform="rotate(-45 828.374 2551.47)"/><circle cx="925.929" cy="2603.636" r="35.885" fill="#ff8c7c" transform="rotate(-45 925.929 2603.636)"/><path fill="#fff" d="M2046.40677,2739.2104c0,39.1387-8.9479,76.89-25.5985,112.4402H940.809c-10.2387,3.9234-20.5743,7.5119-31.0525,10.6218-1.0046-2.0095-2.0583-4.019-3.015-6.0284,55.9806-28.8039,93.3972-87.4642,93.3972-184.0192q0-6.2439-.1437-12.3445v-.0479a411.18147,411.18147,0,0,0,27.2737-148.5166c0-8.8994-.2874-17.7034-.8621-26.4594,6.8429-5.0239,13.8284-9.9041,21.0533-14.6888,31.0526,172.5834,65.9331,367.9422,65.9331,367.9422h365.2143s7.9912-82.9663-49.425-92.5357c0,0-8.5169-244.2105,25.4058-389.0428,2.6797-.0958,5.4073-.0958,8.087-.0958,30.0959,0,59.6649,1.4833,88.5167,4.354v373.6362s-57.4162,37.4642-43.0622,103.6841h370.8132s29.6648-165.4545,52.7273-326.8419C2003.77447,2574.9521,2046.40677,2653.8515,2046.40677,2739.2104Z"/><path fill="#380d36" d="M520.703 2257.1277a19.16274 19.16274 0 1113.2276-5.31l-.0488.0463A19.0693 19.0693 0 01520.703 2257.1277zM2058.02967 2247.511c-.2026 0-.4077-.0024-.6128-.0098a19.13535 19.13535 0 01-18.5254-19.7314c.1856-5.9229.2783-11.8945.2783-17.8662 0-350.918-334.8388-636.4111-746.4111-636.4111-220.2124 0-401.2988 78.1982-538.2251 232.4218a19.139 19.139 0 11-28.623-25.415c144.5044-162.7588 335.2197-245.2832 566.8481-245.2832 432.6782 0 784.6875 302.6636 784.6875 674.6875 0 6.3769-.0976 12.749-.2978 19.0723A19.13832 19.13832 0 012058.02967 2247.511z"/><path fill="#380d36" d="M795.15127,2893.7317c-114.3115,0-243.8403-7.3682-337.8003-62.0264-97.876-56.936-145.4541-156.9238-145.4541-305.6762,0-289.6558,212.2827-608.0933,417.5122-748.6133a19.13836,19.13836,0,0,1,21.626,31.582c-192.7857,131.9995-400.8618,443.6719-400.8618,717.0313,0,133.938,41.3549,223.103,126.4257,272.5903,86.0962,50.083,209.3457,56.8359,318.5523,56.8359,7.4707,0,15.2637-.2612,23.1616-.7739,2.2754-.1343,4.397-.2563,6.4771-.4687l1.7822-.149c1.7187-.1171,3.4009-.271,5.0806-.4638.6689-.0928,1.2866-.1563,1.8798-.1978a375.92812,375.92812,0,0,0,68.3399-13.4765c9.4507-2.8052,19.1504-6.1231,29.6362-10.1416a19.13822,19.13822,0,1,1,13.6963,35.7421c-11.4185,4.375-22.0337,8.0054-32.4536,11.0987a414.544,414.544,0,0,1-75.8228,14.9072l-.6201.0635c-2.1997.2563-4.4018.4614-6.6455.6225-.5322.0586-1.0644.105-1.5967.1343-2.417.232-4.8779.3858-7.3852.5347C812.07267,2893.4461,803.44467,2893.7317,795.15127,2893.7317Z"/><path fill="#380d36" d="M804.71917,2893.2996a19.1382,19.1382,0,0,1,0-38.2764c4.3774,0,9.0527-.1221,13.8964-.3589,1.9727-.1172,4.0943-.2392,6.1744-.4516l1.7822-.149c1.7187-.1171,3.4009-.271,5.0806-.4638.5932-.0806,1.1474-.1416,1.6796-.1831,23.191-2.7149,44.1016-8.8257,62.1656-18.1665,55.1196-28.3594,83.0493-84.5484,83.0493-167.0215q0-6.0168-.1367-11.897c-3.5645-132.1631-66.3086-220.9741-156.1304-220.9741-105.4907,0-168.4692,77.2363-168.4692,206.604a19.1382,19.1382,0,1,1-38.2764,0c0-151.0474,79.2187-244.8804,206.7456-244.8804,112.1069,0,190.2295,103.7769,194.3945,258.2398l.0074.5151c.0927,3.8159.1416,8.0786.1416,12.3926,0,122.0288-56.4356,176.6797-103.7769,201.04-22.2998,11.5308-47.8345,19.0186-75.8569,22.2339l-1.1646.1245c-2.1069.2417-4.2139.437-6.3623.5908-.5322.0586-1.0644.105-1.5967.1343-2.417.232-4.8779.3858-7.3852.5347C815.02427,2893.1653,809.71917,2893.2996,804.71917,2893.2996Z"/><path fill="#380d36" d="M997.54387 2674.9988a19.11846 19.11846 0 01-19.1382-19.1138v-3.6255l1.2915-3.3349c17.2388-44.5117 25.9814-92.1533 25.9814-141.604 0-8.4131-.2758-16.8946-.8203-25.21-10.852-175.9863-135.542-313.7866-283.8696-313.7866-68.4497 0-134.6802 29.4531-186.4941 82.937l-.564.5567a19.1392 19.1392 0 01-26.7359-27.3902c59.0601-60.8618 134.9756-94.3799 213.794-94.3799 168.5107 0 309.9805 153.5767 322.0679 349.6363.5957 9.0698.8984 18.3935.8984 27.6367 0 54.0234-9.5483 106.1596-28.3838 154.9634A19.16032 19.16032 0 01997.54387 2674.9988zM2254.47987 2495.9802a19.13931 19.13931 0 01-19.1382-19.1381c0-9.4971-.4394-19.1358-1.3086-28.6451-10.4663-114.5996-81.8994-201.0205-166.1548-201.0205-3.1005 0-5.8642.0928-8.4545.2832a19.13846 19.13846 0 11-2.8077-38.1738c3.5328-.2612 7.2168-.3857 11.2622-.3857 104.1748 0 191.9947 101.3794 204.2749 235.8178.9717 10.6617 1.4649 21.4698 1.4649 32.1241A19.13925 19.13925 0 012254.47987 2495.9802z"/><path fill="#380d36" d="M2219.88757,2866.7932a19.13815,19.13815,0,1,1,0-38.2763c57.7515,0,121.9995-86.9434,140.2954-189.856,11.9532-67.2534,2.4073-129.2895-24.9121-161.8945-11.8506-14.1431-26.0742-21.3135-42.2729-21.3135a63.55926,63.55926,0,0,0-19.8438,3.3398c.3076,6.0303.4639,12.063.4639,18.0494,0,64.6215-17.8394,127.041-50.2344,175.7641a19.13825,19.13825,0,1,1-31.875-21.1914c28.2666-42.5146,43.833-97.4096,43.833-154.5727,0-9.4971-.4394-19.1358-1.3086-28.6451l-1.1841-12.9931,11.6602-5.8521c16.1035-8.0786,32.417-12.1753,48.4888-12.1753,27.6587,0,52.4218,12.1045,71.6113,35.0049,34.9194,41.6748,47.3535,113.8916,33.2593,193.1787C2375.79577,2769.5276,2297.61707,2866.7932,2219.88757,2866.7932Z"/><path fill="#380d36" d="M2219.88757,2866.7932H923.47647a19.13815,19.13815,0,1,1,0-38.2763h1296.4111a19.13815,19.13815,0,1,1,0,38.2763Z"/><path fill="#380d36" d="M1493.53747,2853.2532h-398.623l-2.815-15.7739c0-.0049-34.8779-195.3467-65.9277-367.9175-37.4292-208.0566-45.498-250.73-46.8359-256.7896a19.1411,19.1411,0,0,1,31.8823-18.9843c4.7241,4.7216,4.7241,4.7216,20.039,88.7304,8.6817,47.6148,20.3345,112.1631,32.5855,180.2661,25.791,143.3399,54.2236,302.3926,63.1201,352.1924h330.1563c-1.2378-19.834-7.4536-50.1733-33.5376-54.519l-16.2696-2.7124.2808-16.4942c.2734-16.0302,7.2095-393.8696,51.1572-506.2304a19.14,19.14,0,1,1,35.6494,13.9453c-36.8335,94.1675-46.4746,406.9238-48.2153,478.3545,44.7778,18.6108,52.0435,77.2607,49.021,108.6304Zm-509.4067-632.4194a.15967.15967,0,0,1,.022.0195A.15967.15967,0,0,0,984.13077,2220.8338Z"/><path fill="#380d36" d="M1892.50237,2853.2532h-402.2608l-3.269-15.083c-13.6963-63.1885,27.0483-111.9995,43.1372-128.3594,3.0542-49.5264,19.4067-334.8144-.3101-469.4287a19.14,19.14,0,0,1,37.876-5.5469c22.1118,150.9986,1.0645,471.3452.1587,484.9097l-.5347,7.998-6.0766,5.2295c-.3955.3467-39.812,35.3614-38.6499,82.0044h337.8637c7.92-45.1123,31.1744-179.8315,49.834-310.4126q2.2266-15.2856,4.292-30.3271c12.4585-90.0977,19.7778-158.7183,21.7529-203.9722a19.13932,19.13932,0,0,1,38.2422,1.6699c-2.0288,46.4429-9.4555,116.2671-22.0776,207.5293q-2.0874,15.1941-4.3262,30.5664c-22.8369,159.8243-52.5293,325.8033-52.8271,327.461Zm-343.7647-134.7852h0Z"/><path fill="#380d36" d="M1933.51307 2495.9851a19.14135 19.14135 0 01-5.8984-37.3486c50.9106-16.5088 73.728-108.2349 78.2251-142.1875a19.13835 19.13835 0 0137.9516 4.978c-.7788 5.9619-20.0561 146.2818-104.3701 173.6206A19.152 19.152 0 011933.51307 2495.9851zM1023.96967 2498.7122a17.85141 17.85141 0 01-10.5811-32.2388c7.102-5.2173 14.4238-10.3247 21.7651-15.1855a17.85114 17.85114 0 0119.7071 29.7705c-6.8579 4.541-13.7012 9.3139-20.3394 14.1894A17.75987 17.75987 0 011023.96967 2498.7122z"/><path fill="#fca030" d="M581.51357,1188.2873c-79.7215,478.6297,312.4912,803.7728,793.5691,883.902,481.0778,80.1293,848.9053-50.0816,928.6268-528.7112,24.3361-146.1082-36.2344-286.8646-117.5127-415.9365-48.6794-77.304,125.5455-507.5734-496.5427-629.4132C984.02237,359.9261,661.23507,709.6577,581.51357,1188.2873Z"/><path fill="#fff" d="M2300.478,1540.6225c-10.7655,64.7369-26.8414,123.1101-47.751,175.4546a912.66322,912.66322,0,0,0,24.2587-107.0813c24.3065-146.1245-36.2683-286.8899-117.5122-415.9327-35.071-55.6459,45.3587-294.1148-138.7559-468.8514-22.0089,31.196-85.837,35.6457-149.6172,8.8037-68.947-29.091-111.7697-83.7799-95.5501-122.2008a43.93329,43.93329,0,0,1,11.3403-15.7894,1099.61585,1099.61585,0,0,0-123.972-31.3875c-589.4252-115.4545-911.7216,109.5691-1048.324,465.7412,120.8133-395.0716,445.5494-656.7461,1071.8176-534.1146,622.105,121.8661,447.8938,552.105,496.5537,629.4254C2264.25877,1253.7808,2324.83247,1394.4983,2300.478,1540.6225Z" opacity=".6"/><path fill="#380d36" d="M2300.29477,1541.807c-79.7124,478.6123-447.5118,608.8513-928.6122,528.7078-481.0525-80.1435-873.301-405.2626-793.5395-883.8749.5736-3.3494,1.1004-6.6508,1.7218-10.0002,7.1771,404.8325,369.2351,677.1289,803.8273,749.5212,466.5069,77.7033,826.5545-42.4401,920.5743-486.2676A412.61708,412.61708,0,0,1,2300.29477,1541.807Z" opacity=".3"/><path fill="#914817" d="M602.07457,914.214c54.9838,87.8825,126.3331,213.7192,252.9245,104.6611,75.9549-65.4348,133.6938-262.3693,307.8928-449.0287,94.31-101.056,260.8209,8.0798,279.4496-102.6693,9.7096-57.7462-254.6784-162.3912-475.4465-92.2211C675.22757,467.6611,469.99237,703.1025,602.07457,914.214Z"/><path fill="#fff" d="M1438.13247,467.196c-1.6751,10.048-4.5931,18.2775-8.6126,25.0241-10.1914-12.5358-28.9476-25.8374-54.0193-38.2296-90.0475-44.737-261.6742-78.6126-412.8229-30.5742-218.5162,69.4259-388.5162,219.0428-404.4969,378.4686-17.7995-176.9376,163.9234-350.4783,404.4969-426.9375,170.0959-54.0669,366.1243-4.3063,442.6314,47.7511C1428.13207,438.2008,1440.38117,453.9426,1438.13247,467.196Z" opacity=".6"/><path fill="#914817" d="M1816.44267,527.5292c477.2111,150.8304,330.1158,527.1127,375.3381,598.8831q12.54705,19.85775,24.2963,40.1295c11.395,61.5568,83.2668,130.4926,140.6093,114.3932,200.0246-56.1589,61.1982-147.1561-24.9432-322.6084-51.6849-105.2715-78.8543-235.5696-150.627-284.4953C2028.83727,570.0149,1898.81457,545.2608,1816.44267,527.5292Z"/><path fill="#fff" d="M2435.67937,1248.1047c19.8475-54.7139-45.1053-136.2188-92.9522-218.63-61.6618-106.2061-114.8325-275.215-186.6028-324.1625-7.7038-5.2631-59.3265-34.9761-66.8867-39.8086q-28.63635-18.3732-56.0764-33.1579c-53.9714-61.9138-89.9705-62.279-216.7168-102.3268,55.9818,12.0097,133.8755,27.3207,225.8381,68.421a892.73744,892.73744,0,0,1,138.8517,77.8948c71.7703,48.8994,98.947,179.1863,150.6219,284.4494,45.1192,91.866,104.6404,160.6219,122.3914,213.3014C2464.05227,1203.2722,2461.08517,1227.5303,2435.67937,1248.1047Z" opacity=".6"/><ellipse cx="1183.989" cy="1090.455" fill="#914817" rx="226.946" ry="154.46" transform="rotate(-80.543 1183.99 1090.455)"/><ellipse cx="1999.849" cy="1224.849" fill="#914817" rx="207.826" ry="126.688" transform="rotate(-80.544 1999.849 1224.849)"/><ellipse cx="1570.81" cy="1512.523" fill="#914817" rx="331.057" ry="476.363" transform="rotate(-80.544 1570.81 1512.523)"/><path fill="#380d36" d="M1614.65747,1349.29s-21.8834,197.7282-223.8603,258.3342c0,0,207.2244-52.48,360.6778,79.8205,0,0-98.2489-180.4316,13.7448-338.1547C1765.21977,1349.29,1695.99707,1401.9603,1614.65747,1349.29Z" opacity=".3"/><path fill="#6b184e" d="M2043.88447,1552.3413a231.8429,231.8429,0,0,1-3.1575,38.4688c-30.0479,180.3348-264.7849,291.483-524.3062,248.2774-259.5214-43.2058-445.5506-224.4497-415.5026-404.8325a234.00414,234.00414,0,0,1,11.4839-43.0621c.0479,166.9856,177.6549,326.1243,418.708,366.3155C1769.19607,1797.1736,1986.42037,1706.8387,2043.88447,1552.3413Z" opacity=".3"/><path fill="#915a17" d="M1813.48927,545.2608l-.0444-.0074Z"/><path fill="#380d36" d="M2343.247 1301.1096c-54.6948 0-106.1304-42.6367-149.6509-124.4482a19.13936 19.13936 0 0133.794-17.9785c27.5341 51.7602 71.8359 111.7236 126.394 103.3325 41.4185-6.3525 67.4072-20.061 77.2412-40.7471 23.4058-49.2285-33.2104-145.6323-87.9614-238.8623-39.6997-67.6025-80.7544-137.5073-99.1162-200.2856-37.5781-128.4863-344.5459-230.7837-433.8941-234.3457a19.13872 19.13872 0 011.5235-38.2471c85.0342 3.3887 423.352 105.3931 469.1089 261.8457 17.0312 58.23 56.8652 126.0571 95.3857 191.6504 62.5537 106.5161 121.6406 207.1265 89.5239 274.6802-15.8349 33.3081-50.5102 53.6352-106.0083 62.1484A107.63942 107.63942 0 012343.247 1301.1096zM774.99257 1073.7512c-48.0664.0025-97.3218-30.3588-150.127-92.4096-73.5253-86.3989-95.4345-198.7281-60.1098-308.1885 48.1152-149.0942 194.646-267.1069 391.9702-315.686 193.8843-47.7246 401.5015 7.0288 470.8911 63.1274 19.2554 15.5664 28.7671 31.8115 28.2691 48.2788-1.6382 53.9722-35.8643 55.8325-72.0997 57.8027-40.1489 2.1851-107.3461 5.8399-212.0825 60.1612-62.1582 32.2363-114.4775 133.4057-165.0757 231.2427-64.9926 125.6738-126.3794 244.3774-218.6328 254.9292A114.142 114.142 0 01774.99257 1073.7512zm337.6587-696.3159c-47.5806 0-97.3682 5.0366-146.7749 17.1997-184.3482 45.3833-320.6812 153.8965-364.6924 290.2735-31.1597 96.5527-11.9043 195.5566 52.832 271.6235 47.9981 56.4014 91.5992 82.8076 129.6289 78.4473 71.9776-8.2324 131.46-123.252 188.9844-234.4824 53.3423-103.147 108.501-209.8047 181.4527-247.6392 112.0507-58.1152 184.3994-62.0508 227.6269-64.4019 35.3467-1.9214 35.3467-1.9214 35.9155-20.7446.0513-1.6211-2.3828-7.9004-14.0722-17.3511C1362.52427 417.1912 1246.32317 377.4353 1112.65127 377.4353zM1751.45737 1692.157a19.08024 19.08024 0 01-8.8671-2.1899c-72.5904-38.0396-94.9952-127.1949-99.8755-203.4644q-3.59265 6.5478-7.5586 13.1275c-53.8501 89.1381-134.7461 134.0576-234.0747 129.9218a19.13776 19.13776 0 011.5966-38.2422c85.1954 3.5205 152.3072-33.6303 199.1382-110.5224 35.2417-57.8687 45.7984-118.064 46.3965-121.6138.0171-.1074.0318-.2026.0464-.2832l37.7881 6.0938c-.0098.0634-.0244.1611-.0464.2905-1.123 7.0972-35.6079 233.164 74.3579 290.7861a19.14215 19.14215 0 01-8.9014 36.0962z"/><circle cx="1818.098" cy="1446.648" r="19.182" fill="#380d36" transform="rotate(-76.654 1818.098 1446.648)"/><circle cx="1854.458" cy="1491.597" r="19.182" fill="#380d36" transform="rotate(-8.474 1854.457 1491.597)"/><circle cx="1798.657" cy="1496.728" r="19.182" fill="#380d36" transform="rotate(-24.593 1798.656 1496.728)"/><circle cx="1460.267" cy="1396.147" r="25.84" fill="#380d36" transform="rotate(-78.554 1460.267 1396.147)"/><circle cx="1461.749" cy="1482.98" r="25.84" fill="#380d36" transform="rotate(-35.543 1461.75 1482.98)"/><circle cx="1390.797" cy="1444.966" r="25.84" fill="#380d36" transform="rotate(-3.183 1390.795 1444.963)"/><path fill="#380d36" d="M1619.59947,2113.0066q-115.78845,0-247.6684-21.9263c-250.7691-41.7797-470.1026-147.6098-617.5977-297.9956-163.8354-167.0507-230.1172-377.2778-191.6797-607.9541,13.274-79.6435,33.0811-154.6533,58.8672-222.9419a19.139,19.139,0,0,1,35.8106,13.5206c-24.9073,65.9545-44.0576,138.5327-56.919,215.7153-36.3476,218.1152,26.3281,416.897,181.25,574.8559,141.8628,144.646,353.7232,246.587,596.5552,287.0411,85.7007,14.2675,166.1816,21.3281,240.9814,21.3305,339.9317.0196,563.7525-145.664,639.8584-422.5927,49.0039-178.3594-11.7993-391.6285-89.0332-514.3018-13.5962-21.582-13.5864-56.4233-13.5742-104.6436.0391-158.5986.105-424.0454-470.4638-516.1963-87.7466-17.1606-171.8018-27.0727-249.8243-29.4604a19.13982,19.13982,0,0,1,1.1719-38.2617c80.0903,2.4512,166.2232,12.5976,256.0059,30.1587,501.499,98.2055,501.4257,394.5581,501.3867,553.7695-.0073,37.0288-.0171,72.0044,7.688,84.2358,81.5625,129.5508,145.6274,355.3077,93.5522,544.8414-49.3579,179.6044-156.1743,307.9492-317.478,381.4697C1877.16787,2089.8523,1757.02387,2113.0017,1619.59947,2113.0066Z"/><path fill="#380d36" d="M1533.10327,1246.5561c-7.8812,47.3165,51.9951,124.0766,124.626,136.1741,72.6309,12.0976,135.4524-45.3091,143.3335-92.6255,7.8811-47.3165-42.1625-66.6251-114.7934-78.7226C1613.63847,1199.2845,1540.98437,1199.2396,1533.10327,1246.5561Z"/><ellipse cx="1670.153" cy="1257.994" fill="#fff" rx="17.491" ry="81.86" transform="rotate(-83.269 1670.153 1257.994)"/><path fill="#380d36" d="M2033.18347 1368.4339a19.18369 19.18369 0 01-3.4765-.3199c-75.1563-13.7939-97.4976-90.6225-98.8135-129.3188a19.13922 19.13922 0 0138.2544-1.355h0c.1318 3.3179 3.9648 81.3721 67.4682 93.0274a19.14064 19.14064 0 01-3.4326 37.9663zM1155.393 1218.1165c-18.2617 0-39.0527-2.7075-62.688-9.1504a19.13832 19.13832 0 1110.0684-36.9287c111.687 30.4345 137.5219-38.6963 138.5644-41.6577a19.13949 19.13949 0 0136.2744 12.2192C1277.31437 1143.4973 1251.24747 1218.1165 1155.393 1218.1165z"/><path fill="#380d36" d="M1403.23277,422.665c-5.9809,15.9809-16.3642,25.5503-29.8566,31.2919-57.8473,24.5932-172.9669-21.8659-245.4541,55.7894-19.4796,20.8705-42.0746,49.0253-63.0751,76.5992a1065.1955,1065.1955,0,0,1-180.9408,185.9688l-42.3551,33.9532c-48.1377,38.5885-114.7519,47.2208-169.7155,19.1974-39.8684-20.3271-74.8046-59.6854-77.4212-134.8912l-33.2208,83.5849c-.5554,36.1841,7.0239,72.7142,23.8727,108.7848-6.0761-9.5719-11.9391-19.0479-17.6227-28.1253a277.2065,277.2065,0,0,0,28.3252,59.3777c40.4419,64.6005,89.6972,149.6933,163.2293,146.9678,28.0872.8655,59.7791-11.0837,96.001-42.2885,60.4267-52.0575,109.3891-187.3578,214.5709-334.4852l-6.2353-.0546a1131.38082,1131.38082,0,0,1,93.2947-114.4931c85.7416-91.8662,231.1487-10.0003,270.8136-77.6081,4.0191-6.7462,6.9378-15.0235,8.612-25.0717C1438.30417,453.9093,1426.05557,438.1674,1403.23277,422.665Z" opacity=".3"/><path fill="#380d36" d="M1302.058 524.6903s-143.5406 59.9716-226.4752 277.1946c-82.9345 217.2229-133.9712 348.0044-274.322 351.1941-140.3508 3.1898-195.743-77.4101-195.743-77.4101l38.1593-88.7289s194.4464 208.1446 310.1108-97.8782C1097.73457 508.2103 1302.058 524.6903 1302.058 524.6903zM2465.63447 1217.5796l-2.5-57.5c-70 110-220.5054-40.6223-220.5054-40.6223l-.0103.048q-10.0443-17.1195-20.6708-34.0036c-26.698-42.3923 13.7323-191.1484-47.2241-336.8418a130.02255 130.02255 0 00-15.4548-12.3926q-11.5557-7.8945-22.8711-15.1193c-17.4652-11.1963-34.5928-21.34-51.3397-30.5743 143.5407 170.4785 74.7364 383.6841 107.6074 435.8847q12.56025 19.8807 24.3067 40.1437c8.9465 48.421 55.4065 101.4832 102.727 114.0192a81.25659 81.25659 0 0014.8804 2.4878 65.30459 65.30459 0 0022.583-2.153c36.8433-10.3351 62.2009-21.8659 78.5175-34.9283.0482.0958.0958.1437.0482.2395a13.25927 13.25927 0 01.4297 1.8656c9.6185-7.7725 15.9479-16.1078 19.6411-25.0211zM2391.31577 2604.2104a355.60123 355.60123 0 01-4.7379 38.8037c-20.1901 113.5887-91.4347 205.646-159.1376 205.646H945.90957c-10.2387 3.9235-20.5744 7.512-31.0526 10.6219-1.0046-2.0095-2.0571-4.019-3.0138-6.0288-20.8138 10.7656-44.2583 17.3685-69.2833 20.2394a6.58813 6.58813 0 00-.9088.0955c-2.0571.2395-4.1154.4308-6.2203.5742a9.26318 9.26318 0 01-1.1483.0958c-2.3445.2391-4.7368.3828-7.1771.5262-8.0858.5265-16.2195.8136-24.4012.8136-256.3159 0-464.1145-42.2967-464.1145-348.5645 0-150.0477 60.8611-314.354 150.9565-455.5977-67.2245 206.1243-165.8853 645.5019 198.0382 683.923 87.9426 9.2823 268.4681 56.3156 309.6169-168.9472a401.346 401.346 0 017.8942 70.4304q4.8099-12.488 8.8522-25.5024c12.6789 26.3636-6.7871-256.9373 31.0594-278.8991.5268-.2871 80.0158 496.2197 390.7592 335.0715l5.1667-3.7322 1.1004-133.8754v-.1916c1.0046-16.172 2.0571-32.775 3.3023-49.4735 11.8659 17.7989 59.617 78.4211 119.9034 8.0383l-.0479 1.579-6.4587 151.0047s.2862.4304.8131 1.1961c11.005 16.0286 173.4394 223.8038 377.5577-211.6026.6502-1.3869-22.63 216.9615-21.4339 215.9566 0 0 62.1052 50.6699 134.6418 45.024 68.8511-5.4067 216.6585-190.7175 159.588-376.5388 0 0 37.2055 148.9792 49.263 186.5389v.0478C2282.129 2592.9186 2326.531 2682.8706 2391.31577 2604.2104z" opacity=".3"/></svg>