<svg xmlns="http://www.w3.org/2000/svg" width="50" height="50" enable-background="new 0 0 50 50" viewBox="0 0 50 50"><path fill="#E5E2E0" d="M36,13V9H14v4c-2.2,0-4,1.8-4,4v24c0,2.2,1.8,4,4,4h22c2.2,0,4-1.8,4-4V17C40,14.8,38.2,13,36,13z"/><path fill="#D95E46" d="M37,9H13c-0.6,0-1-0.4-1-1V6c0-0.6,0.4-1,1-1h24c0.6,0,1,0.4,1,1v2C38,8.6,37.6,9,37,9z"/><rect width="2" height="4" x="14" y="5" opacity=".15"/><rect width="2" height="4" x="18" y="5" opacity=".15"/><rect width="2" height="4" x="22" y="5" opacity=".15"/><rect width="2" height="4" x="26" y="5" opacity=".15"/><rect width="2" height="4" x="30" y="5" opacity=".15"/><rect width="2" height="4" x="34" y="5" opacity=".15"/><rect width="30" height="19" x="10" y="19" fill="#D95E46"/><path d="M40,17v24c0,2.2-1.8,4-4,4h-5c2.2,0,4-1.8,4-4V17c0-2.2-1.8-4-4-4V9h5v4C38.2,13,40,14.8,40,17z" opacity=".1"/><polygon fill="#F9D163" points="28 22 22 22 20 29 24 29 23 36 30 26 26 26"/><rect width="22" height="2" x="14" y="9" opacity=".05"/></svg>