<svg xmlns="http://www.w3.org/2000/svg" data-name="Layer 1" viewBox="0 0 64 64"><circle cx="35" cy="35" r="26" fill="#557c3e"/><path fill="#a9c358" d="M55.94,32.5c0-2.347-2.141-4.383-2.682-6.521-.572-2.269.3-5.086-.784-7.009-1.149-2.033-4.021-2.694-5.635-4.21-1.271-1.2-2.1-3.087-3.311-4.322a25.919,25.919,0,0,0-4.4-1.109,25.4,25.4,0,0,1-3.946.611A29.034,29.034,0,0,1,31.044,9.3a25.855,25.855,0,0,0-3.987.941c-1.337,1.22-2.192,3.254-3.538,4.519-1.614,1.517-4.486,2.178-5.635,4.211-1.087,1.924-.212,4.741-.785,7.009-.54,2.138-2.681,4.175-2.681,6.521s2.141,4.383,2.681,6.521c.573,2.269-.3,5.086.785,7.009,1.149,2.033,4.021,2.694,5.635,4.21,1.687,1.587,2.589,4.405,4.658,5.277s4.674-.457,7-.457,4.926,1.331,7,.457,2.971-3.69,4.659-5.276c1.613-1.517,4.486-2.178,5.635-4.211,1.087-1.924.212-4.741.785-7.009C53.8,36.883,55.94,34.846,55.94,32.5Z"/><path fill="#557c3e" d="M49.9,32.5c0,2.043-2.02,3.885-2.3,5.775-.307,2.045,1.051,4.418.456,6.207-.666,2-3.19,3.025-4.154,4.6-1.128,1.842-1.069,4.594-2.51,5.688-1.677,1.273-4.1.291-6.049.291s-4.372.982-6.049-.291c-1.441-1.094-1.381-3.846-2.509-5.687-.964-1.574-3.488-2.6-4.154-4.6-.595-1.788.764-4.161.456-6.2-.284-1.891-2.3-3.734-2.3-5.778s2.021-3.885,2.3-5.775c.307-2.045-1.052-4.418-.456-6.207.665-2,3.189-3.025,4.154-4.6,1.128-1.842,1.068-4.594,2.51-5.688,1.677-1.273,4.1-.291,6.048-.291s4.373-.982,6.05.291c1.44,1.094,1.381,3.846,2.508,5.687.965,1.574,3.489,2.6,4.154,4.6.6,1.788-.763,4.161-.456,6.205C47.878,28.613,49.9,30.456,49.9,32.5Z"/><path fill="#a9c358" d="M40.354,32.5c0,1.684-1.912,3.289-1.975,4.873-.067,1.71,1.707,3.468,1.575,5.018-.149,1.752-2.2,3.171-2.424,4.659-.276,1.857,1.234,3.87.868,5.2a3.306,3.306,0,0,1-3.333,2.807c-.9,0-2.642-.287-3.335-2.815-.366-1.331,1.145-3.342.87-5.2-.221-1.488-2.275-2.907-2.425-4.659-.131-1.55,1.643-3.307,1.576-5.016-.063-1.584-1.975-3.19-1.975-4.874s1.912-3.289,1.975-4.873c.067-1.71-1.707-3.468-1.575-5.018.149-1.752,2.2-3.171,2.424-4.659.275-1.857-1.234-3.87-.868-5.2A3.306,3.306,0,0,1,35.065,9.94c.9,0,2.642.287,3.335,2.815.366,1.331-1.145,3.342-.87,5.2.221,1.488,2.275,2.907,2.424,4.659.132,1.55-1.642,3.307-1.575,5.016C38.442,29.21,40.354,30.816,40.354,32.5Z"/><path fill="#6b4b2c" d="M10.736,41.214A72.011,72.011,0,0,0,22,42a72.011,72.011,0,0,0,11.264-.786C35.579,40.827,41,39.924,41,35.5s-5.421-5.327-7.736-5.714A72.011,72.011,0,0,0,22,29a72.011,72.011,0,0,0-11.264.786C8.421,30.173,3,31.076,3,35.5S8.421,40.827,10.736,41.214Z"/><path fill="#faf4e8" d="M22,41a71.049,71.049,0,0,1-11.1-.772C7.486,39.657,4,38.65,4,35.5s3.486-4.157,6.9-4.727A70.984,70.984,0,0,1,22,30a71.049,71.049,0,0,1,11.1.772c3.414.571,6.9,1.578,6.9,4.728s-3.486,4.157-6.9,4.727A70.984,70.984,0,0,1,22,41Z"/><ellipse cx="22" cy="35.5" fill="#f0e0c0" rx="15" ry="2.5"/><path fill="#5c4026" d="M41,35.5c0,4.424-5.421,5.327-7.736,5.714A72.011,72.011,0,0,1,22,42a72.011,72.011,0,0,1-11.264-.786C8.421,40.827,3,39.924,3,35.5V42a19,19,0,0,0,38,0c0-.335-.009-.669-.026-1Z"/><path fill="#523922" d="M41,35.5c0,2.41-1.611,3.77-3.45,4.576A18.975,18.975,0,0,1,3.771,47.327,18.995,18.995,0,0,0,41,42c0-.335-.009-.669-.026-1Z"/><path fill="#cc2b2b" d="M36.155,49.919c-2.479,2.966-2.955,6.653-.714,8.526l.141.118.688.574a9.314,9.314,0,0,0,6.542,1.847c1.729-.08,5.627-.03,5.6-2.517-.041-3.587-.171-7.572-3.163-10.072l-.767-.641C42.361,45.983,38.634,46.952,36.155,49.919Z"/><path fill="#ba1c22" d="M48.38,56.981v-.034h0c-.1-3.034-.533-6.159-2.865-8.308A3.874,3.874,0,0,0,45,50.57v1.08a6.874,6.874,0,0,0,.682,2.583,3.449,3.449,0,0,1-2.829,4.88l-.041,0a9.313,9.313,0,0,1-6.542-1.846l-.688-.575-.141-.118a3.95,3.95,0,0,1-1.355-2.386,4.4,4.4,0,0,0,1.355,4.255l.141.118.688.574a9.314,9.314,0,0,0,6.542,1.847c1.729-.08,5.627-.03,5.6-2.517C48.405,57.977,48.4,57.48,48.38,56.981Z"/><ellipse cx="40.444" cy="48.196" fill="#ba1c22" rx="1.5" ry=".693" transform="rotate(-17.87 40.41 48.162)"/><circle cx="7" cy="57" r="4" fill="#542fa1"/><path fill="#462194" d="M19 57H18a1 1 0 010-2h1a1 1 0 010 2zM19 59H18a1 1 0 010-2h1a1 1 0 010 2z"/><circle cx="15" cy="57" r="4" fill="#542fa1"/><path fill="#462194" d="M9.281,53.719A3.994,3.994,0,0,1,3.719,59.28a4,4,0,1,0,5.562-5.561Z"/><path fill="#462194" d="M16,60a3.995,3.995,0,0,1-3.281-6.281,4,4,0,1,0,5.562,5.561A3.971,3.971,0,0,1,16,60Z"/><path fill="#395e23" d="M36.617,50.4c1.468-1.83,1.2-4.775,1.159-5.105a1,1,0,1,0-1.988.217,7.438,7.438,0,0,1-.265,2.728l-2.959-2.376a1,1,0,1,0-1.252,1.559L34.273,49.8a7.356,7.356,0,0,1-2.611.847,1,1,0,0,0,.11,1.995,1.028,1.028,0,0,0,.11-.006C32.211,52.6,35.147,52.232,36.617,50.4Z"/><path fill="#f9cc78" d="M37.857 55.247A1 1 0 1036.6 56.806l.78.626a1 1 0 001.253-1.559zM41.141 52.753l-.78-.626a1 1 0 00-1.252 1.561l.78.625a1 1 0 001.252-1.56zM42.393 51.194a1 1 0 101.253-1.558l-.78-.627a1 1 0 10-1.253 1.558zM42.228 56.191a1 1 0 00-1.252 1.561l.78.626a1 1 0 001.252-1.561zM44.732 53.072a1 1 0 00-1.252 1.561l.78.626A1 1 0 0045.512 53.7z"/><path fill="#462194" d="M8,56a1,1,0,0,0-2,0,1,1,0,0,0,0,2,1,1,0,0,0,2,0,1,1,0,0,0,0-2Z"/><path fill="#395e23" d="M35,10a1,1,0,0,1-1-1,7.008,7.008,0,0,1,7-7h1a1,1,0,0,1,0,2H41a5.006,5.006,0,0,0-5,5A1,1,0,0,1,35,10Z"/><path fill="#cc2b2b" d="M54,45.65c-3.866,0-7,2-7,4.92v1.08a9.314,9.314,0,0,0,2.779,6.2c1.17,1.276,3.631,4.3,5.521,2.681C58.025,58.2,61,55.548,61,51.65v-1C61,47.888,57.866,45.65,54,45.65Z"/><ellipse cx="57.431" cy="47.896" fill="#ba1c22" rx=".707" ry="1.662" transform="rotate(-55.729 57.43 47.896)"/><path fill="#ba1c22" d="M55.3,58.886c-1.89,1.617-4.351-1.406-5.521-2.681A9.476,9.476,0,0,1,47.018,50.3c-.006.091-.018.181-.018.274v1.08a9.314,9.314,0,0,0,2.779,6.2c1.17,1.276,3.631,4.3,5.521,2.681C58.025,58.2,61,55.548,61,51.65v-1c0-.088-.012-.174-.018-.262C60.79,54.074,57.933,56.633,55.3,58.886Z"/><path fill="#395e23" d="M54,46.649c2.347,0,4.473-2.058,4.707-2.293a1,1,0,0,0-1.413-1.415A7.394,7.394,0,0,1,55,44.446v-3.8a1,1,0,0,0-2,0v3.8a7.394,7.394,0,0,1-2.294-1.5,1,1,0,0,0-1.413,1.415C49.527,44.591,51.653,46.649,54,46.649Z"/><path fill="#f9cc78" d="M51 50.649a1 1 0 00-2 0v1a1 1 0 002 0zM55 50.649a1 1 0 00-2 0v1a1 1 0 002 0zM58 49.649a1 1 0 00-1 1v1a1 1 0 002 0v-1A1 1 0 0058 49.649zM52 53.649a1 1 0 00-1 1v1a1 1 0 002 0v-1A1 1 0 0052 53.649zM56 53.649a1 1 0 00-1 1v1a1 1 0 002 0v-1A1 1 0 0056 53.649z"/></svg>