<svg xmlns="http://www.w3.org/2000/svg" width="50" height="50" enable-background="new 0 0 50 50" viewBox="0 0 50 50"><path fill="#579957" d="M31.8,16.7c-0.1,0-0.1,0-0.2,0c-0.3,0-0.5-0.2-0.5-0.4c0-0.3,0.2-0.5,0.4-0.5c1.1-0.1,1.8-1.8,1.8-3.3
			c0,0,0-0.1,0-0.2c-0.3,0.3-0.6,0.5-0.8,0.7c-1.4,0.8-3.1,0.6-3.9-0.1c-0.8-0.7-1.1-2-0.7-2.9c0.3-0.6,1.1-1.6,3.5-1.4
			C32,8.7,32.5,8.9,33,9.3c-0.6-2.6-2.7-3.4-6.6-2.6c-0.3,0.1-0.5-0.1-0.6-0.4c-0.1-0.3,0.1-0.5,0.4-0.6c4.5-0.9,7.1,0.2,7.7,3.4
			C34,9.8,34,10.3,34,10.8c0.2,0.5,0.3,1.1,0.3,1.7C34.3,14.3,33.4,16.4,31.8,16.7z M29.9,9.6c-0.6,0.1-0.9,0.4-1.1,0.8
			c-0.3,0.6,0,1.4,0.5,1.8c0.5,0.5,1.9,0.6,2.8,0c0.5-0.3,0.8-0.7,1-1.3c-0.3-0.6-0.8-1.2-1.8-1.3C30.7,9.5,30.2,9.5,29.9,9.6z"/><path fill="#579957" d="M27.8,5.6c-2.7-2.5-11.4,0.8-14.3,4.2C10.3,13.6,4.8,21.9,4,30.3s3,14.4,4.8,14.8c2.8,0.7,3.7-4.4,4-6.9
		c0.3-2.5,2.8-11.4,5.3-16.5C21.4,15,29.8,7.4,27.8,5.6z"/><path d="M9.5,44.3c-0.1,0-0.3,0-0.5,0C8,44,4.1,38.8,5,30.4c0.7-7.6,5.5-15.5,9.3-20c1.6-1.9,5.3-3.8,8.5-4.5
		c2.1-0.4,3.7-0.3,4.4,0.4c0.2,0.8-2.3,4-4,6.2c-2.1,2.7-4.5,5.8-5.9,8.8c-2.6,5.3-5.1,14.3-5.4,16.8C11.4,42.4,10.3,44.1,9.5,44.3
		L9.5,44.3z" opacity=".25"/><path d="M9.2,41.7C8,40,6.3,36.1,6.9,30.6c0.7-7.2,5.2-14.7,8.9-18.9c1.3-1.5,4.7-3.2,7.4-3.8c0.5-0.1,0.9-0.2,1.3-0.2
		c-0.8,1.2-2.1,2.8-2.8,3.7c-2.2,2.8-4.6,6-6.2,9.1c-2.7,5.6-5.3,14.8-5.6,17.5C9.7,39.8,9.4,41,9.2,41.7z" opacity=".25"/><circle cx="19.9" cy="10.3" r="2.9" fill="#6BB678"/><path d="M22.8,9.7c0.3,1.6-0.7,3.1-2.2,3.4c-1,0.2-2-0.1-2.7-0.8c0.5,0.2,1,0.2,1.6,0.1C21,12.1,22,10.5,21.6,9
		c-0.1-0.5-0.4-1-0.7-1.4C21.8,7.9,22.5,8.7,22.8,9.7z" opacity=".1"/><ellipse cx="18.9" cy="10" fill="#FFF" opacity=".3" rx="1" ry="1.4" transform="rotate(15.54 18.858 10.037)"/><circle cx="9.4" cy="30.2" r="2.9" fill="#6BB678"/><path d="M12.2,29.6c0.3,1.6-0.7,3.1-2.2,3.4c-1,0.2-2-0.1-2.7-0.8c0.5,0.2,1,0.2,1.6,0.1c1.6-0.3,2.6-1.8,2.2-3.4
		c-0.1-0.5-0.4-1-0.7-1.4C11.3,27.8,12,28.6,12.2,29.6z" opacity=".1"/><ellipse cx="8.3" cy="29.9" fill="#FFF" opacity=".3" rx="1" ry="1.4" transform="rotate(15.54 8.336 29.879)"/><circle cx="9.3" cy="36.6" r="2.4" fill="#6BB678"/><path d="M11.6,36.1c0.3,1.3-0.6,2.6-1.9,2.8c-0.9,0.2-1.7-0.1-2.2-0.7c0.4,0.1,0.8,0.2,1.3,0.1c1.3-0.3,2.1-1.5,1.9-2.8
		c-0.1-0.4-0.3-0.8-0.6-1.1C10.9,34.6,11.5,35.2,11.6,36.1z" opacity=".1"/><ellipse cx="8.4" cy="36.3" fill="#FFF" opacity=".3" rx=".8" ry="1.2" transform="rotate(15.54 8.393 36.32)"/><circle cx="15.7" cy="15.6" r="3.4" fill="#6BB678"/><path d="M19,14.9c0.4,1.8-0.8,3.6-2.6,4c-1.2,0.3-2.4-0.2-3.1-1c0.6,0.2,1.2,0.3,1.8,0.1c1.8-0.4,3-2.2,2.6-4
		c-0.1-0.6-0.4-1.2-0.8-1.6C17.9,12.8,18.7,13.7,19,14.9z" opacity=".1"/><ellipse cx="14.4" cy="15.3" fill="#FFF" opacity=".3" rx="1.2" ry="1.7" transform="rotate(15.54 14.404 15.294)"/><circle cx="11.2" cy="22.4" r="3.4" fill="#6BB678"/><path d="M14.5,21.8c0.4,1.8-0.8,3.6-2.6,4c-1.2,0.3-2.4-0.2-3.1-1c0.6,0.2,1.2,0.3,1.8,0.1c1.8-0.4,3-2.2,2.6-4
		c-0.1-0.6-0.4-1.2-0.8-1.6C13.4,19.6,14.3,20.6,14.5,21.8z" opacity=".1"/><ellipse cx="10" cy="22.1" fill="#FFF" opacity=".3" rx="1.2" ry="1.7" transform="rotate(15.54 9.96 22.105)"/><path fill="#579957" d="M45.8,16.7c-0.1,0-0.1,0-0.2,0c-0.3,0-0.5-0.2-0.5-0.4c0-0.3,0.2-0.5,0.4-0.5c1.1-0.1,1.8-1.8,1.8-3.3
			c0,0,0-0.1,0-0.2c-0.3,0.3-0.6,0.5-0.8,0.7c-1.4,0.8-3.1,0.6-3.9-0.1c-0.8-0.7-1.1-2-0.7-2.9c0.3-0.6,1.1-1.6,3.5-1.4
			C46,8.7,46.5,8.9,47,9.3c-0.6-2.6-2.7-3.4-6.6-2.6c-0.3,0.1-0.5-0.1-0.6-0.4c-0.1-0.3,0.1-0.5,0.4-0.6c4.5-0.9,7.1,0.2,7.7,3.4
			C48,9.8,48,10.3,48,10.8c0.2,0.5,0.3,1.1,0.3,1.7C48.3,14.3,47.4,16.4,45.8,16.7z M43.9,9.6c-0.6,0.1-0.9,0.4-1.1,0.8
			c-0.3,0.6,0,1.4,0.5,1.8c0.5,0.5,1.9,0.6,2.8,0c0.5-0.3,0.8-0.7,1-1.3c-0.3-0.6-0.8-1.2-1.8-1.3C44.7,9.5,44.2,9.5,43.9,9.6z"/><path fill="#579957" d="M41.8,5.6c-2.7-2.5-11.4,0.8-14.3,4.2c-3.3,3.8-8.8,12.1-9.6,20.5c-0.8,8.5,3,14.4,4.8,14.8
		c2.8,0.7,3.7-4.4,4-6.9c0.3-2.5,2.8-11.4,5.3-16.5C35.4,15,43.8,7.4,41.8,5.6z"/><path d="M23.5,44.3c-0.1,0-0.3,0-0.5,0c-1-0.3-4.9-5.4-4.1-13.8c0.7-7.6,5.5-15.5,9.3-20c1.6-1.9,5.3-3.8,8.5-4.5
		c2.1-0.4,3.7-0.3,4.4,0.4c0.2,0.8-2.3,4-4,6.2c-2.1,2.7-4.5,5.8-5.9,8.8c-2.6,5.3-5.1,14.3-5.4,16.8C25.4,42.4,24.3,44.1,23.5,44.3
		L23.5,44.3z" opacity=".25"/><path d="M23.2,41.7c-1.1-1.7-2.8-5.6-2.3-11.1c0.7-7.2,5.2-14.7,8.9-18.9c1.3-1.5,4.7-3.2,7.4-3.8c0.5-0.1,0.9-0.2,1.3-0.2
		c-0.8,1.2-2.1,2.8-2.8,3.7c-2.2,2.8-4.6,6-6.2,9.1c-2.7,5.6-5.3,14.8-5.6,17.5C23.7,39.8,23.4,41,23.2,41.7z" opacity=".25"/><circle cx="33.9" cy="10.3" r="2.9" fill="#6BB678"/><path d="M36.8,9.7c0.3,1.6-0.7,3.1-2.2,3.4c-1,0.2-2-0.1-2.7-0.8c0.5,0.2,1,0.2,1.6,0.1C35,12.1,36,10.5,35.6,9
		c-0.1-0.5-0.4-1-0.7-1.4C35.8,7.9,36.5,8.7,36.8,9.7z" opacity=".1"/><ellipse cx="32.9" cy="10" fill="#FFF" opacity=".3" rx="1" ry="1.4" transform="rotate(15.54 32.858 10.037)"/><circle cx="23.4" cy="30.2" r="2.9" fill="#6BB678"/><path d="M26.2,29.6c0.3,1.6-0.7,3.1-2.2,3.4c-1,0.2-2-0.1-2.7-0.8c0.5,0.2,1,0.2,1.6,0.1c1.6-0.3,2.6-1.8,2.2-3.4
		c-0.1-0.5-0.4-1-0.7-1.4C25.3,27.8,26,28.6,26.2,29.6z" opacity=".1"/><ellipse cx="22.3" cy="29.9" fill="#FFF" opacity=".3" rx="1" ry="1.4" transform="rotate(15.54 22.336 29.878)"/><circle cx="23.3" cy="36.6" r="2.4" fill="#6BB678"/><path d="M25.6,36.1c0.3,1.3-0.6,2.6-1.9,2.8c-0.9,0.2-1.7-0.1-2.2-0.7c0.4,0.1,0.8,0.2,1.3,0.1c1.3-0.3,2.1-1.5,1.9-2.8
		c-0.1-0.4-0.3-0.8-0.6-1.1C24.9,34.6,25.5,35.2,25.6,36.1z" opacity=".1"/><ellipse cx="22.4" cy="36.3" fill="#FFF" opacity=".3" rx=".8" ry="1.2" transform="rotate(15.54 22.392 36.319)"/><circle cx="29.7" cy="15.6" r="3.4" fill="#6BB678"/><path d="M33,14.9c0.4,1.8-0.8,3.6-2.6,4c-1.2,0.3-2.4-0.2-3.1-1c0.6,0.2,1.2,0.3,1.8,0.1c1.8-0.4,3-2.2,2.6-4
		c-0.1-0.6-0.4-1.2-0.8-1.6C31.9,12.8,32.7,13.7,33,14.9z" opacity=".1"/><ellipse cx="28.4" cy="15.3" fill="#FFF" opacity=".3" rx="1.2" ry="1.7" transform="rotate(15.54 28.404 15.294)"/><circle cx="25.2" cy="22.4" r="3.4" fill="#6BB678"/><path d="M28.5,21.8c0.4,1.8-0.8,3.6-2.6,4c-1.2,0.3-2.4-0.2-3.1-1c0.6,0.2,1.2,0.3,1.8,0.1c1.8-0.4,3-2.2,2.6-4
		c-0.1-0.6-0.4-1.2-0.8-1.6C27.4,19.6,28.3,20.6,28.5,21.8z" opacity=".1"/><ellipse cx="24" cy="22.1" fill="#FFF" opacity=".3" rx="1.2" ry="1.7" transform="rotate(15.54 23.958 22.105)"/></svg>