<svg xmlns="http://www.w3.org/2000/svg" width="50" height="50" enable-background="new 0 0 50 50" viewBox="0 0 50 50"><path fill="#579957" d="M29,13h-8c-0.6,0-1-0.4-1-1V8c0-0.6,0.4-1,1-1h8c0.6,0,1,0.4,1,1v4C30,12.6,29.6,13,29,13z"/><path d="M30,8v4c0,0.5-0.5,1-1,1h-2c0.5,0,1-0.5,1-1V8c0-0.5-0.5-1-1-1h2C29.5,7,30,7.5,30,8z" opacity=".1"/><path fill="#579957" d="M23,7l0.8-5.2c0.1-0.5,0.5-0.8,1-0.8h0.3c0.5,0,0.9,0.4,1,0.8L27,7H23z"/><path d="M23,7l0.8-5.2c0.1-0.5,0.5-0.8,1-0.8h0.3c0.5,0,0.9,0.4,1,0.8L27,7H23z" opacity=".1"/><path fill="#CC6350" d="M31.4,18L29,16v-3h-4h-4v3l-2.4,2c-2.3,1.9-3.6,4.7-3.6,7.7v18.8c0,1.2,0.5,2.4,1.5,3.1
		c1.4,1.1,4,2.4,8.5,2.4s7.1-1.3,8.5-2.4c1-0.7,1.5-1.9,1.5-3.1V25.7C35,22.7,33.7,19.9,31.4,18z"/><path d="M35,25.7v18.8c0,1.2-0.5,2.4-1.5,3.1c-1.4,1.1-4,2.4-8.5,2.4c-3.1,0-5.4-0.6-6.9-1.4c1.1,0.2,2.4,0.4,3.9,0.4
		c8,0,10-4,10-4V21.9c0-1.2-0.5-2.3-1.4-3.1L26,15v-2h3v3l2.4,2C33.7,19.9,35,22.7,35,25.7z" opacity=".1"/><path fill="#FFF" d="M26,48.6c-1.1,0.2-2.4,0.4-4,0.4c-0.3,0-0.6,0-0.9,0h0c-1,0-1.9-0.9-2.5-1.4c-1-0.8-1.6-1.9-1.6-3.1V25.7
		c0-3,1.3-5.8,3.6-7.7l2.4-2v-3h3v2l0,0l-4.6,3.8c-0.9,0.8-1.5,1.9-1.5,3.1V45C20,45,21.4,47.6,26,48.6z" opacity=".1"/><path fill="#FFF" d="M25 41c-2.2 0-4.3-.9-5.9-2.6-.4-.4-.3-1.1.2-1.5l0 0c.4-.3.9-.2 1.3.1 1.1 1.2 2.7 1.9 4.4 1.9s3.3-.7 4.4-1.9c.3-.4.9-.4 1.3-.1l0 0c.5.3.6 1 .2 1.5C29.3 40.1 27.2 41 25 41zM30.7 29c-.4.3-.9.2-1.3-.1C28.3 27.7 26.7 27 25 27s-3.3.7-4.4 1.9c-.3.4-.9.4-1.3.1l0 0c-.5-.3-.6-1-.2-1.5 1.5-1.6 3.6-2.6 5.9-2.6s4.3.9 5.9 2.6C31.3 28 31.2 28.7 30.7 29L30.7 29z" opacity=".8"/><path fill="#FFF" d="M25.1,32.5c1.4-0.9,3.2,0.1,3.2,1.6c0,0,0.1,1.2-0.9,1.7c0,0-0.1-1.9-1.3-1.2c-1.2,0.6-0.6,2.4-1.3,2.6
		s-0.3-0.8-0.6-1.5c-0.3-0.6-2.3-0.9-1.6-2.9s0.4-2.4-0.2-2.2c0,0,0.9-1.9,2.4-0.9C25.5,30.1,25.3,31.3,25.1,32.5z"/></svg>