<svg xmlns="http://www.w3.org/2000/svg" id="Layer_1" x="0" y="0" enable-background="new 0 0 128 128" version="1.1" viewBox="0 0 128 128" xml:space="preserve"><path id="XMLID_1588_" fill="#f4cece" d="M65.3,24.3l0,0.1c-5.2,2.9-9.7,7-13.2,11.9c-2.1,3-3.9,6.4-5.2,10.1l-2.2,9.1  c0,0-0.3,2.6-0.4,4c-0.8,6.5-3.7,13.2-6.9,18.7c0,0,0,0,0,0c-1.1,1.8-2.2,3.5-3.3,5c-2.7,3.7-3.2,8.9-2,13.7  c2.1,8.5,9.7,14.3,18.1,14.4c-8.2,0.8-23,1.6-32.8-1c-0.4-0.1-0.8-0.2-1.1-0.3c-0.5-0.1-1-0.3-1.4-0.5c-13.5-5-8.2-15.7-2.6-19.3  c0.9-0.6,1.7-2.2,2.7-4.6c1.7-4.4,3.8-11.3,7.7-19.2c4.1-8.4,10.1-18,19.7-26.8c2.4-2.2,5-4.3,7.8-6.4  C54.6,30.1,59.6,27.1,65.3,24.3z"/><g id="XMLID_1169_"><path id="XMLID_1170_" fill="#fad8d7" d="M15.8,96c1.1-0.2,2.4-1.4,4.2-3.2c3.2-3.4,7.8-9,14.3-15c1.8-1.6,3.8-3.3,5.9-4.9   c2-4.2,3.5-8.8,4.1-13.3c0.1-1.4,0.4-4,0.4-4l2.2-9.1c1.3-3.6,3.1-7,5.2-10.1c3.5-5,8-9.1,13.2-11.9l0-0.1   c-5.7,2.7-10.7,5.8-15.1,9c-2.9,2.1-5.5,4.2-7.8,6.4c-9.6,8.8-15.6,18.4-19.7,26.8c-3.8,7.9-6,14.9-7.7,19.2   c-0.9,2.4-1.8,4-2.7,4.6c-3.6,2.3-7,7.5-5.5,12.3C8.3,99.1,12.4,96.6,15.8,96z"/></g><path id="XMLID_1166_" fill="#ffe3e0" d="M15.2,94.2c1-0.4,2-1.9,3.3-4.1c2.3-4.1,5.4-10.6,10.3-18c4-5.9,9.2-12.3,16.2-18.2l1.8-7.4  c1.3-3.6,3.1-7,5.2-10.1c3.5-5,8-9.1,13.2-11.9l0-0.1c-5.7,2.7-10.7,5.8-15.1,9c-2.9,2.1-5.5,4.2-7.8,6.4  c-9.6,8.8-15.6,18.4-19.7,26.8c-3.8,7.9-6,14.9-7.7,19.2c-0.9,2.4-1.8,4-2.7,4.6C8,93.1,4,99.7,8,105C7.5,100.3,11.5,95.9,15.2,94.2  z"/><path id="XMLID_1328_" fill="none" d="M122.2,50C117,28.8,95.7,15.7,74.5,20.9C57.6,24.9,46,39.2,44.4,55.6l0,0c0,0,0,0,0,0  c-0.1,1.3-0.2,2.6-0.2,4c-1,8.6-6.2,17.5-8.7,21.5c-0.5,0.7-1,1.4-1.4,2.1c0,0.1-0.1,0.1-0.1,0.1l0,0c-2.3,4-3.1,8.9-2,13.7  c2.4,10.1,12.6,16.3,22.7,13.9c1.1-0.3,35.6-1.7,54.6-21.6l0,0C120.3,80,125.8,65,122.2,50z"/><path id="XMLID_1511_" fill="none" d="M65.3,24.3c-5.7,2.7-10.7,5.8-15.1,9c-2.9,2.1-5.5,4.2-7.8,6.4  c-9.6,8.8-15.6,18.4-19.7,26.8c-3.8,7.9-6,14.9-7.7,19.2c-0.9,2.4-1.8,4-2.7,4.6c-5.6,3.6-10.8,14.3,2.6,19.3  c0.4,0.2,0.9,0.3,1.4,0.5c0.4,0.1,0.7,0.2,1.1,0.3c13.7,3.6,34.8-1.3,34.8-1.3"/><path id="XMLID_1510_" fill="none" stroke="#31352e" stroke-miterlimit="10" stroke-width="6" d="M65.3,24.3c-5.7,2.7-10.7,5.8-15.1,9c-2.9,2.1-5.5,4.2-7.8,6.4c-9.6,8.8-15.6,18.4-19.7,26.8  c-3.8,7.9-6,14.9-7.7,19.2c-0.9,2.4-1.8,4-2.7,4.6c-5.6,3.6-10.8,14.3,2.6,19.3c0.4,0.2,0.9,0.3,1.4,0.5c0.4,0.1,0.7,0.2,1.1,0.3  c14.1,3.8,38.7,0.3,38.7,0.3"/><path id="XMLID_1811_" fill="#ffecf0" d="M122.2,50C117,28.8,95.7,15.7,74.5,20.9c-16.9,4.1-29.3,19.7-30.2,38.7  c-1,8.6-5.8,17.7-10.2,23.7c-2.7,3.7-3.1,8.9-2,13.7c2.4,10.1,12.6,16.3,22.7,13.9c1.1-0.3,35.1-3,55.4-22.3  C122.1,77.3,125.8,65,122.2,50z"/><path id="XMLID_1321_" fill="none" stroke="#31352e" stroke-miterlimit="10" stroke-width="6" d="M122.2,50C117,28.8,95.7,15.7,74.5,20.9c-16.9,4.1-29.3,19.7-30.2,38.7  c-1,8.6-5.8,17.7-10.2,23.7c-2.7,3.7-3.1,8.9-2,13.7c2.4,10.1,12.6,16.3,22.7,13.9c1.1-0.3,35.1-3,55.4-22.3  C122.1,77.3,125.8,65,122.2,50z"/><path id="XMLID_1897_" fill="#ea4b54" d="M51.1,104c-0.2,0-0.3,0-0.5,0c-4.9,0.2-9.5-4.9-10.4-8c-1.4-4.9,1.1-10.6,10.4-17.7  c7.4-5.7,1.8-10.7,8.4-15.8c2.1-1.7,17.1-1,18.1,3.1c1.3,5.4,6.3,4.5,6.8,9.9L85.1,89c0.4,4.4-2.3,8.5-6.6,9.8  c-2.3,0.7-4.6,1.3-6.9,1.8c-7.7,1.7-14.2,2.5-16.8,2.8c-1,0.1-1.5,0.2-2.3,0.4C52.1,103.9,51.6,103.9,51.1,104z"/><path id="XMLID_1891_" fill="#ea4b54" d="M71.7,58.2c-0.8,0.1-1.5,0-2.3,0l-7.6-0.8c-2.3-0.2-4.5-1.4-5.7-3.3c-1.3-2-1.6-4.5-0.7-6.8  c3.9-9.9,11.9-17.2,21.4-19.5c1.5-0.4,3-0.6,4.5-0.7c7.9-0.7,16,1.8,22.4,6.9c2.6,2.1,4.2,5.4,3.8,8.8c-0.4,3.5-2.6,6.5-5.8,7.8  L99,51.7c-2.1,0.9-4.4,1.2-6.7,0.7c-7.2-1.6-10.4-1.5-12.8,2C77.8,56.8,74.7,57.9,71.7,58.2z"/><path id="XMLID_1893_" fill="#ea4b54" d="M93.7,91.7c-3.4,0.3-5.3-2.4-5.6-5.8l-0.6-10.8c-0.2-8.2-5-7.6-6.9-9.8  c-2.9-3.6-0.3-11.7,6.6-10.2c8.2,1.8,9.1,0.9,11.8-0.1c3.5-1.2,11.7-5.2,14.4-2.6c1.5,1.4,2.4,3.3,2.4,5.4c-0.1,12.5-7,23.3-19.3,33  C95.7,91.4,94.7,91.6,93.7,91.7z"/></svg>