<svg xmlns="http://www.w3.org/2000/svg" width="50" height="50" enable-background="new 0 0 50 50" viewBox="0 0 50 50"><circle cx="25" cy="28.4" r="17.6" fill="#ED8026"/><path fill="#ED3E20" d="M42.6,28.4C42.6,38.1,34.7,46,25,46c-9.7,0-17.6-7.9-17.6-17.6c0-0.5,0-1,0.1-1.5C8.2,35.9,15.8,43,25,43
		c9.2,0,16.8-7.1,17.5-16.1C42.5,27.4,42.6,27.9,42.6,28.4z" opacity=".3"/><path fill="#FFF" d="M13,24c-0.8,0-1.4-0.6-1.4-1.4c0-3.1,2.3-5.7,5.3-5.9c0.1,0,0.2,0,0.4,0c0.8,0,1.4,0.6,1.4,1.4
			c0,0.8-0.6,1.4-1.4,1.4c-0.1,0-0.1,0-0.2,0c-1.5,0.1-2.7,1.5-2.7,3.1C14.4,23.4,13.8,24,13,24C13,24,13,24,13,24z" opacity=".3"/><path fill="#ED3E20" d="M42.6,28.4C42.6,38.1,34.7,46,25,46c-6.2,0-11.7-3.2-14.8-8.1c2.7,1.8,6,2.8,9.5,2.8
		c9.7,0,17.6-7.9,17.6-17.6c0-3.5-1-6.8-2.8-9.5C39.4,16.8,42.6,22.2,42.6,28.4z" opacity=".3"/><ellipse cx="25.2" cy="20.5" fill="#ED3E20" opacity=".3" rx="2.7" ry="2.5"/><path fill="#7F5D39" d="M25.6,21c0.6-0.1,1.1-0.7,1-1.4c-0.3-3.4-3-10-11-10c-0.7,0-1.3,0.6-1.3,1.3c0,0.7,0.6,1.3,1.3,1.3
			c7.6,0,8.3,7.3,8.3,7.6c0.1,0.7,0.7,1.3,1.4,1.2C25.4,21.1,25.5,21,25.6,21z"/><path fill="#6BB678" d="M23.9,15.6c0.1,0.5,0.2,0.8,0.2,0.8c7.8-1.8,7.3-8.3,6.7-11C30.7,4.5,30.5,4,30.5,4
		C22.3,5.9,23.3,13.2,23.9,15.6z"/><path d="M23.9,15.6c0.1,0.5,0.2,0.8,0.2,0.8c7.8-1.8,7.3-8.3,6.7-11c-0.1-0.5-0.2-0.8-0.2-0.8l-0.1,0c0.2,2.7-0.3,8-6.9,9.6
		C23.7,14.6,23.8,15.2,23.9,15.6z" opacity=".1"/><circle cx="18" cy="29" r="2" fill="#6A2119" opacity=".4"/><circle cx="30" cy="29" r="2" fill="#6A2119" opacity=".4"/><path fill="#6A2119" d="M20.5,32.3c-0.3-0.2-0.6-0.1-0.5,0.3c0.2,1.8,1.3,3.4,4,3.4s3.8-1.6,4-3.4c0-0.4-0.2-0.5-0.5-0.3
		c-1.9,1.1-3.5,1-3.5,1S22.4,33.4,20.5,32.3z" opacity=".4"/></svg>