<svg xmlns="http://www.w3.org/2000/svg" data-name="Layer 1" viewBox="0 0 64 64"><path fill="#822525" d="M41.774 43.8a12.063 12.063 0 0 0-.923-2.672 8.325 8.325 0 0 0-3.713-3.809c-2.363-1.212-4.616-.414-7.1-.649-3.233-.306-5.917-2.756-7.932-5.389a30.4 30.4 0 0 1-1.721-2.511c-1.219-1.973-2.422-4.157-4.661-5.1a9.021 9.021 0 0 0-5.859-.339 9.071 9.071 0 0 0-6.829 8.782c.184 5.6 3.065 11.592 6.884 15.62 6.745 7.116 18.848 10.337 27.747 5.327a8.14 8.14 0 0 0 4.107-9.26Z"/><path fill="#7d1919" d="M37.664 50.062c-8.9 5.01-21 1.789-27.747-5.327A25.766 25.766 0 0 1 3.14 30.522a8.083 8.083 0 0 0-.107 1.593c.184 5.6 3.065 11.592 6.884 15.62 6.745 7.116 18.848 10.337 27.747 5.327a8.074 8.074 0 0 0 4.188-8.724 8.03 8.03 0 0 1-4.188 5.724Z"/><path fill="#7d1919" d="M35.712 37.5a5.408 5.408 0 0 0 .268-.612c-1.952-.53-3.867-.02-5.945-.216-3.233-.306-5.917-2.756-7.932-5.389a29.217 29.217 0 0 1-1.214-1.728c-.041.071-.089.137-.127.211-1.682 3.251.3 7.618 4.43 9.754s8.838 1.233 10.52-2.02Z"/><path fill="#822525" d="M58.883 13.4a12.075 12.075 0 0 0-2.078-1.917 8.328 8.328 0 0 0-5.074-1.6c-2.655.051-4.262 1.82-6.564 2.79-2.993 1.261-6.517.374-9.538-.992a29.288 29.288 0 0 1-2.7-1.4C30.917 9.128 28.824 7.774 26.4 8a9.028 9.028 0 0 0-5.322 2.475 9.158 9.158 0 0 0-1.517 11.509 24.69 24.69 0 0 0 13.116 9.961c9.31 3.075 21.5.184 26.964-8.442a8.14 8.14 0 0 0-.758-10.103Z"/><path fill="#7d1919" d="M50.394 10.709a5.19 5.19 0 0 0-.039-.614c-1.893.49-3.315 1.8-5.188 2.584-2.993 1.261-6.517.374-9.538-.992a28.947 28.947 0 0 1-2.062-1.045c0 .023-.005.044-.005.067 0 3.66 3.768 6.628 8.416 6.628s8.416-2.968 8.416-6.628Z"/><ellipse cx="53.893" cy="13.574" fill="#e6aeae" rx="1.065" ry="3.248" transform="rotate(-66.228 53.893 13.574)"/><ellipse cx="36.129" cy="41.265" fill="#e6aeae" rx="1.5" ry="3" transform="rotate(-62.648 36.128 41.265)"/><path fill="#7d1919" d="M60.873 17.323a8.9 8.9 0 0 1-1.28 3.206c-5.468 8.625-17.654 11.516-26.963 8.441a24.686 24.686 0 0 1-13.117-9.96 9.291 9.291 0 0 1-1.22-3.194 9.169 9.169 0 0 0 1.272 6.169 24.69 24.69 0 0 0 13.116 9.961c9.31 3.075 21.5.184 26.964-8.442a8.139 8.139 0 0 0 1.228-6.181Z"/><path fill="#fff" d="M40.94 16.106c3.274.512 6.205-.841 6.547-3.024a2.876 2.876 0 0 0-.2-1.536 16.7 16.7 0 0 1-2.117 1.133c-2.993 1.261-6.517.374-9.538-.992.029 2.02 2.268 3.942 5.308 4.419zM24.69 37.691c2.641 2 5.863 2.2 7.2.436a2.887 2.887 0 0 0 .548-1.45 16.736 16.736 0 0 1-2.4 0c-3.233-.306-5.917-2.756-7.932-5.389-.932 1.792.13 4.544 2.584 6.403z"/><path d="M57.4 10.68a8.711 8.711 0 0 0-10.562-.03 16.115 16.115 0 0 1-2.055 1.108c-2.81 1.184-6.63.4-11.353-2.334l-.447-.26c-1.926-1.124-4.109-2.4-6.668-2.159a10.005 10.005 0 0 0-5.918 2.747 10.156 10.156 0 0 0-1.681 12.756A25.76 25.76 0 0 0 32.368 32.9a25.37 25.37 0 0 0 7.9 1.215c7.664 0 15.851-3.173 20.224-10.071a9.162 9.162 0 0 0-.843-11.284 13.1 13.1 0 0 0-2.249-2.08ZM45.556 13.6c.311-.131.594-.282.879-.432a2.78 2.78 0 0 1-1.541 1.532 7.192 7.192 0 0 1-7.306-1.188c3.057.988 5.73 1.03 7.968.088ZM58.8 22.969c-5.43 8.566-17.382 10.81-25.8 8.027a23.7 23.7 0 0 1-12.578-9.534 8.17 8.17 0 0 1 1.35-10.262A8 8 0 0 1 26.5 9q.226-.021.45-.021c1.741 0 3.339.933 5.022 1.916l.454.265c.78.451 1.534.838 2.276 1.191.421 2.3 2.857 4.241 6.085 4.746a9.907 9.907 0 0 0 1.535.121 8.179 8.179 0 0 0 3.412-.7 4.436 4.436 0 0 0 2.743-3.276 3.66 3.66 0 0 0-.025-1.221 6.58 6.58 0 0 1 3.3-1.126 7.294 7.294 0 0 1 4.465 1.4 11.144 11.144 0 0 1 1.906 1.758 7.158 7.158 0 0 1 .677 8.916Z"/><path d="M28.07 56.484a20.392 20.392 0 0 0 10.085-2.551 9.161 9.161 0 0 0 4.6-10.339 13.138 13.138 0 0 0-1-2.893 9.359 9.359 0 0 0-4.16-4.267 9.421 9.421 0 0 0-5.13-.758 16.106 16.106 0 0 1-2.335 0c-3.036-.286-6.029-2.786-8.9-7.429l-.271-.441c-1.164-1.9-2.483-4.058-4.851-5.058a10.005 10.005 0 0 0-6.508-.379 10.083 10.083 0 0 0-7.564 9.778 26.138 26.138 0 0 0 7.155 16.276 26.97 26.97 0 0 0 18.879 8.061zm1.871-18.815c.327.031.64.031.955.035-1.1 1.061-3.561.737-5.6-.809a6.684 6.684 0 0 1-2.319-3.054 11.278 11.278 0 0 0 6.964 3.828zM10.126 24.3a8.351 8.351 0 0 1 2.207-.3 7.72 7.72 0 0 1 3 .594c1.775.75 2.867 2.534 3.923 4.259l.275.448c.477.772.961 1.486 1.451 2.153-.7 2.22.507 5.068 3.1 7.035a8.507 8.507 0 0 0 5.018 1.85 4.349 4.349 0 0 0 3.587-1.608 3.651 3.651 0 0 0 .555-1.087 6.579 6.579 0 0 1 3.441.569 7.356 7.356 0 0 1 3.268 3.349 11.116 11.116 0 0 1 .847 2.451 7.157 7.157 0 0 1-3.622 8.177c-8.838 4.977-20.431 1.293-26.531-5.143a24.4 24.4 0 0 1-6.613-14.965 8.067 8.067 0 0 1 6.094-7.782zm15.139-2.82a7.138 7.138 0 0 1-1.659-2.8 1 1 0 0 0-1.9.61 9.143 9.143 0 0 0 2.12 3.572 20.276 20.276 0 0 0 2.008 1.819 1 1 0 0 0 1.243-1.567 18.025 18.025 0 0 1-1.812-1.634z"/><path d="M7.707 31.582a1 1 0 1 0-1.987.22 22.758 22.758 0 0 0 2.306 7.558 1 1 0 0 0 .9.556.989.989 0 0 0 .443-.1 1 1 0 0 0 .452-1.34 21.1 21.1 0 0 1-2.114-6.894Z"/></svg>