<svg xmlns="http://www.w3.org/2000/svg" viewBox="0 0 24 24"><path fill="#303C42" d="M22.986 8.43C22.844 4.223 21.147 1 19 1H5C2.757 1 1 4.514 1 9s1.757 8 4 8v5.5a.5.5 0 0 0 .788.41l1.134-.799 1.133.798a.499.499 0 0 0 .576 0l1.132-.797 1.128.796a.499.499 0 0 0 .576 0l1.13-.796 1.128.796a.499.499 0 0 0 .576 0l1.127-.796 1.129.797c.171.122.403.12.577 0l1.123-.796 1.123.795a.502.502 0 0 0 .577 0l1.128-.796 1.127.796a.497.497 0 0 0 .517.036A.5.5 0 0 0 23 22.5v-14c0-.025-.01-.046-.014-.07z"/><path fill="#E4E5E6" d="M22 9c0 4.125-1.581 7-3 7s-3-2.875-3-7 1.581-7 3-7 3 2.875 3 7z"/><path d="M22 9c0 4.125-1.581 7-3 7s-3-2.875-3-7 1.581-7 3-7 3 2.875 3 7z" opacity=".1"/><path fill="#F2F2F2" d="M2 9c0-4.125 1.581-7 3-7h12.038C15.813 3.352 15 5.95 15 9s.813 5.647 2.038 7H5c-1.419 0-3-2.875-3-7z"/><path fill="#F2F2F2" d="m22 21.534-.627-.442a.499.499 0 0 0-.576 0l-1.128.796-1.123-.796a.502.502 0 0 0-.578 0l-1.124.796-1.128-.797a.499.499 0 0 0-.576 0l-1.127.797-1.128-.796a.499.499 0 0 0-.576 0l-1.13.796-1.128-.796a.499.499 0 0 0-.576 0l-1.132.797-1.133-.798a.5.5 0 0 0-.576 0L6 21.537V17h13c1.208 0 2.272-1.026 3-2.668v7.202z"/><path fill="#FFF" d="M6.5 3h9.842c.214-.378.444-.721.696-1H5C3.581 2 2 4.875 2 9c0 3.025.85 5.371 1.864 6.411C3.328 14.095 3 12.383 3 10.5 3 6.358 4.567 3 6.5 3z" opacity=".2"/><path fill="#303C42" d="M18 9c0 1.99.337 3 1 3s1-1.01 1-3-.337-3-1-3-1 1.01-1 3z"/><path d="M5 16h12.038a5.627 5.627 0 0 1-.696-1H3.522c.462.639.98 1 1.478 1z" opacity=".1"/><linearGradient id="a" x1="10.667" x2="20.934" y1="12.333" y2="22.6" gradientUnits="userSpaceOnUse"><stop offset="0" stop-opacity=".1"/><stop offset="1" stop-opacity="0"/></linearGradient><path fill="url(#a)" d="m11.179 21.888 1.13-.797a.499.499 0 0 1 .576 0l1.128.797 1.127-.796a.499.499 0 0 1 .576 0l1.128.796 1.124-.796a.502.502 0 0 1 .578 0l1.123.796 1.128-.796a.499.499 0 0 1 .576 0l.627.442v-7.202C21.272 15.974 20.208 17 19 17H6l4.19 4.19.989.698z"/><linearGradient id="b" x1=".666" x2="25.177" y1="6.512" y2="17.941" gradientUnits="userSpaceOnUse"><stop offset="0" stop-color="#FFF" stop-opacity=".2"/><stop offset="1" stop-color="#FFF" stop-opacity="0"/></linearGradient><path fill="url(#b)" d="M22.986 8.43C22.844 4.223 21.147 1 19 1H5C2.757 1 1 4.514 1 9s1.757 8 4 8v5.5a.5.5 0 0 0 .788.41l1.134-.799 1.133.798a.499.499 0 0 0 .576 0l1.132-.797 1.128.796a.499.499 0 0 0 .576 0l1.13-.796 1.128.796a.499.499 0 0 0 .576 0l1.127-.796 1.129.797c.171.122.403.12.577 0l1.123-.796 1.123.795a.502.502 0 0 0 .577 0l1.128-.796 1.127.796a.497.497 0 0 0 .517.036A.5.5 0 0 0 23 22.5v-14c0-.025-.01-.046-.014-.07z"/></svg>