<svg xmlns="http://www.w3.org/2000/svg" width="50" height="50" enable-background="new 0 0 50 50" viewBox="0 0 50 50"><path fill="#82B34E" d="M45,32.8c-6.9,10-20.6,12.5-30.5,5.6S2,17.7,8.9,7.8"/><path d="M45,32.8c-6.9,10-20.6,12.5-30.5,5.6c-9.4-6.5-12.2-19-6.7-28.8C3.7,19,6.7,30.3,15.5,36.3c9.3,6.5,22,4.7,29.2-3.8
		L45,32.8z" opacity=".15"/><path fill="#D1DBC8" d="M41.7,30.5c-2.7,3.9-6.8,6.6-11.6,7.4s-9.5-0.2-13.4-2.9c-8.1-5.6-10.2-16.8-4.5-25"/><path fill="#E85666" d="M40.1,29.4c-2.4,3.5-6.1,5.9-10.3,6.6c-4.2,0.8-8.4-0.2-11.9-2.6c-7.2-5-9-15-4-22.2"/><path fill="#3D4045" d="M20.7 30.2c-.6.6-1.4.7-1.8.4-.4-.4-.2-1.2.4-1.8.6-.6 1.8-.4 1.8-.4C21 28.5 21.3 29.6 20.7 30.2zM17.7 24.2c-.6.6-1.4.7-1.8.4-.4-.4-.2-1.2.4-1.8.6-.6 1.8-.4 1.8-.4C18 22.5 18.3 23.6 17.7 24.2zM23.7 24.2c-.6.6-1.4.7-1.8.4-.4-.4-.2-1.2.4-1.8.6-.6 1.8-.4 1.8-.4C24 22.5 24.3 23.6 23.7 24.2zM28.7 28.2c-.6.6-1.4.7-1.8.4-.4-.4-.2-1.2.4-1.8.6-.6 1.8-.4 1.8-.4C29 26.5 29.3 27.6 28.7 28.2zM26.7 33.2c-.6.6-1.4.7-1.8.4-.4-.4-.2-1.2.4-1.8.6-.6 1.8-.4 1.8-.4C27 31.5 27.3 32.6 26.7 33.2zM34.7 31.2c-.6.6-1.4.7-1.8.4-.4-.4-.2-1.2.4-1.8.6-.6 1.8-.4 1.8-.4C35 29.5 35.3 30.6 34.7 31.2zM16.7 18.2c-.6.6-1.4.7-1.8.4-.4-.4-.2-1.2.4-1.8.6-.6 1.8-.4 1.8-.4C17 16.5 17.3 17.6 16.7 18.2z"/><path fill="#FFF" d="M45,32.8c-0.4,0.6-0.9,1.2-1.4,1.8L7.9,9.8c-0.4,0.6-0.8,1.2-1.1,1.8C7.4,10.2,8.1,9,8.9,7.8L45,32.8z" opacity=".2"/></svg>